G04*
G04 #@! TF.GenerationSoftware,Altium Limited,Altium Designer,21.0.8 (223)*
G04*
G04 Layer_Physical_Order=2*
G04 Layer_Color=16711680*
%FSLAX25Y25*%
%MOIN*%
G70*
G04*
G04 #@! TF.SameCoordinates,0DE2D123-2560-44B9-80CC-8921B81A5650*
G04*
G04*
G04 #@! TF.FilePolarity,Positive*
G04*
G01*
G75*
G04:AMPARAMS|DCode=34|XSize=98.43mil|YSize=314.96mil|CornerRadius=24.61mil|HoleSize=0mil|Usage=FLASHONLY|Rotation=180.000|XOffset=0mil|YOffset=0mil|HoleType=Round|Shape=RoundedRectangle|*
%AMROUNDEDRECTD34*
21,1,0.09843,0.26575,0,0,180.0*
21,1,0.04921,0.31496,0,0,180.0*
1,1,0.04921,-0.02461,0.13287*
1,1,0.04921,0.02461,0.13287*
1,1,0.04921,0.02461,-0.13287*
1,1,0.04921,-0.02461,-0.13287*
%
%ADD34ROUNDEDRECTD34*%
%ADD35C,0.01181*%
%ADD36C,0.03937*%
%ADD38C,0.05906*%
%ADD39R,0.06299X0.05512*%
%ADD40O,0.06299X0.05512*%
%ADD41R,0.05512X0.06299*%
%ADD42O,0.05512X0.06299*%
%ADD43C,0.07874*%
%ADD44R,0.07874X0.07874*%
%ADD45R,0.07087X0.07087*%
%ADD46C,0.07087*%
%ADD47C,0.05512*%
%ADD48O,0.06299X0.09843*%
%ADD49R,0.06299X0.09843*%
%ADD50O,0.09843X0.06299*%
%ADD51R,0.09843X0.06299*%
%ADD52O,0.10236X0.07874*%
%ADD53R,0.07874X0.07874*%
%ADD54C,0.03937*%
%ADD55C,0.02362*%
%ADD56C,0.15748*%
G36*
X269434Y391243D02*
X270653Y390738D01*
X271749Y390005D01*
X272682Y389072D01*
X273415Y387975D01*
X273920Y386757D01*
X274177Y385463D01*
Y384803D01*
Y7697D01*
Y7039D01*
X273921Y5749D01*
X273417Y4534D01*
X272687Y3440D01*
X271757Y2510D01*
X270663Y1780D01*
X269448Y1276D01*
X268158Y1020D01*
X267500Y1020D01*
X228065D01*
X227895Y1519D01*
X228189Y1744D01*
X228743Y2467D01*
X229092Y3309D01*
X229211Y4213D01*
Y17000D01*
X223260D01*
X217309D01*
Y4213D01*
X217428Y3309D01*
X217776Y2467D01*
X218331Y1744D01*
X218624Y1519D01*
X218454Y1020D01*
X212125D01*
X211956Y1519D01*
X212446Y1896D01*
X212967Y2575D01*
X213294Y3365D01*
X213406Y4213D01*
Y30787D01*
X213294Y31635D01*
X212967Y32425D01*
X212446Y33104D01*
X211768Y33625D01*
X210978Y33952D01*
X210130Y34064D01*
X205209D01*
X204361Y33952D01*
X203571Y33625D01*
X202892Y33104D01*
X202372Y32425D01*
X202044Y31635D01*
X201933Y30787D01*
Y4213D01*
X202044Y3365D01*
X202372Y2575D01*
X202892Y1896D01*
X203383Y1519D01*
X203213Y1020D01*
X196535D01*
X196365Y1519D01*
X196856Y1896D01*
X197377Y2575D01*
X197704Y3365D01*
X197815Y4213D01*
Y30787D01*
X197704Y31635D01*
X197377Y32425D01*
X196856Y33104D01*
X196177Y33625D01*
X195387Y33952D01*
X194539Y34064D01*
X194204D01*
X194012Y34525D01*
X203082Y43595D01*
X218710D01*
X220956Y41349D01*
X221412Y41045D01*
X221950Y40938D01*
X238050D01*
X238588Y41045D01*
X239043Y41349D01*
X241289Y43595D01*
X250000D01*
X250538Y43702D01*
X250993Y44006D01*
X257483Y50496D01*
X257500Y50493D01*
X258268Y50646D01*
X258919Y51081D01*
X259354Y51732D01*
X259507Y52500D01*
X259354Y53268D01*
X258919Y53919D01*
X258268Y54354D01*
X257500Y54507D01*
X256732Y54354D01*
X256081Y53919D01*
X255646Y53268D01*
X255493Y52500D01*
X255496Y52483D01*
X254894Y51881D01*
X254433Y52127D01*
X254507Y52500D01*
X254354Y53268D01*
X253919Y53919D01*
X253268Y54354D01*
X252500Y54507D01*
X251732Y54354D01*
X251081Y53919D01*
X250646Y53268D01*
X250493Y52500D01*
X250496Y52483D01*
X249894Y51881D01*
X249433Y52127D01*
X249507Y52500D01*
X249354Y53268D01*
X248919Y53919D01*
X248268Y54354D01*
X247500Y54507D01*
X246732Y54354D01*
X246081Y53919D01*
X245646Y53268D01*
X245514Y52606D01*
X245280Y52456D01*
X245119Y52490D01*
X244777Y52673D01*
X244766Y52685D01*
X244638Y53327D01*
X244203Y53978D01*
X243552Y54413D01*
X242784Y54566D01*
X242016Y54413D01*
X241365Y53978D01*
X241299Y53880D01*
X239831D01*
X239294Y53773D01*
X238838Y53469D01*
X235022Y49653D01*
X224978D01*
X221421Y53210D01*
X220966Y53514D01*
X220428Y53621D01*
X204354D01*
X204185Y54121D01*
X204731Y54540D01*
X205396Y55407D01*
X205815Y56417D01*
X205891Y57000D01*
X194109D01*
X194185Y56417D01*
X194604Y55407D01*
X195269Y54540D01*
X195815Y54121D01*
X195646Y53621D01*
X186292D01*
X186254Y53669D01*
X186108Y54121D01*
X196133Y64146D01*
X196243Y64061D01*
X197201Y63664D01*
X198228Y63529D01*
X201772D01*
X202799Y63664D01*
X203757Y64061D01*
X204580Y64692D01*
X205211Y65514D01*
X205607Y66472D01*
X205743Y67500D01*
X205607Y68528D01*
X205211Y69485D01*
X204580Y70308D01*
X203757Y70939D01*
X202799Y71336D01*
X201772Y71471D01*
X198228D01*
X197201Y71336D01*
X196243Y70939D01*
X195420Y70308D01*
X194789Y69485D01*
X194393Y68528D01*
X194257Y67500D01*
X194393Y66472D01*
X194420Y66407D01*
X184418Y56405D01*
X179827D01*
X179620Y56905D01*
X196620Y73905D01*
X197201Y73664D01*
X198228Y73529D01*
X201772D01*
X202799Y73664D01*
X203757Y74061D01*
X204580Y74692D01*
X205211Y75515D01*
X205607Y76472D01*
X205743Y77500D01*
X205607Y78528D01*
X205211Y79485D01*
X204580Y80308D01*
X203757Y80939D01*
X202799Y81336D01*
X201772Y81471D01*
X198228D01*
X197201Y81336D01*
X196243Y80939D01*
X195420Y80308D01*
X194789Y79485D01*
X194393Y78528D01*
X194257Y77500D01*
X194393Y76472D01*
X194633Y75892D01*
X177705Y58964D01*
X172386D01*
X172179Y59464D01*
X196620Y83905D01*
X197201Y83664D01*
X198228Y83529D01*
X201772D01*
X202799Y83664D01*
X203757Y84061D01*
X204580Y84692D01*
X205211Y85514D01*
X205607Y86472D01*
X205712Y87268D01*
X206233Y87455D01*
X213831Y79856D01*
Y74089D01*
X213938Y73552D01*
X214243Y73096D01*
X225832Y61507D01*
X226027Y61376D01*
X226045Y61340D01*
X226037Y60781D01*
X225420Y60308D01*
X224789Y59486D01*
X224393Y58528D01*
X224257Y57500D01*
X224393Y56472D01*
X224789Y55515D01*
X225420Y54692D01*
X226243Y54061D01*
X227201Y53664D01*
X228228Y53529D01*
X231772D01*
X232799Y53664D01*
X233757Y54061D01*
X234580Y54692D01*
X235211Y55515D01*
X235607Y56472D01*
X235743Y57500D01*
X235607Y58528D01*
X235211Y59486D01*
X234580Y60308D01*
X234205Y60595D01*
X234375Y61095D01*
X242500D01*
X243038Y61202D01*
X243493Y61507D01*
X248493Y66507D01*
X248798Y66962D01*
X248905Y67500D01*
Y125000D01*
Y160059D01*
X248798Y160597D01*
X248493Y161053D01*
X232014Y177532D01*
X232017Y177549D01*
X231865Y178317D01*
X231430Y178968D01*
X230778Y179403D01*
X230010Y179556D01*
X229242Y179403D01*
X228591Y178968D01*
X228156Y178317D01*
X228003Y177549D01*
X228045Y177338D01*
X227692Y176984D01*
X227481Y177026D01*
X226713Y176874D01*
X226062Y176438D01*
X225626Y175787D01*
X225474Y175019D01*
X225626Y174251D01*
X226062Y173600D01*
X226713Y173165D01*
X227481Y173012D01*
X227498Y173015D01*
X238595Y161918D01*
Y139907D01*
X236233Y137545D01*
X235712Y137732D01*
X235607Y138528D01*
X235211Y139486D01*
X234580Y140308D01*
X233757Y140939D01*
X232799Y141336D01*
X231772Y141471D01*
X228228D01*
X227201Y141336D01*
X226620Y141095D01*
X224222Y143493D01*
X223766Y143798D01*
X223228Y143905D01*
X205921D01*
Y147000D01*
X194079D01*
Y143905D01*
X193082D01*
X189394Y147593D01*
Y153929D01*
X203415Y167949D01*
X203719Y168405D01*
X203826Y168943D01*
Y174538D01*
X203719Y175076D01*
X203415Y175532D01*
X198783Y180164D01*
X198974Y180626D01*
X207314D01*
X208033Y180721D01*
X208704Y180998D01*
X209279Y181440D01*
X220335Y192496D01*
X262224D01*
X262944Y192591D01*
X263614Y192868D01*
X264190Y193310D01*
X265691Y194811D01*
X265719Y194815D01*
X266390Y195093D01*
X266966Y195535D01*
X267407Y196110D01*
X267685Y196781D01*
X267780Y197500D01*
X267685Y198219D01*
X267407Y198890D01*
X266966Y199466D01*
X266390Y199907D01*
X265719Y200185D01*
X265000Y200280D01*
X264449D01*
X263729Y200185D01*
X263059Y199907D01*
X262483Y199466D01*
X261073Y198055D01*
X219184D01*
X218465Y197960D01*
X217794Y197683D01*
X217352Y197343D01*
X217038Y197445D01*
X216953Y197494D01*
X216857Y197586D01*
X216719Y198630D01*
X216283Y199684D01*
X215589Y200589D01*
X214684Y201283D01*
X213631Y201719D01*
X212500Y201868D01*
X211369Y201719D01*
X210316Y201283D01*
X209411Y200589D01*
X208717Y199684D01*
X208281Y198630D01*
X208132Y197500D01*
X208281Y196370D01*
X208717Y195316D01*
X209411Y194411D01*
X210316Y193717D01*
X211369Y193281D01*
X212414Y193143D01*
X212679Y192702D01*
X207493Y187515D01*
X206958Y187688D01*
X206854Y188209D01*
X206419Y188860D01*
X205768Y189295D01*
X205000Y189448D01*
X204232Y189295D01*
X203648Y188905D01*
X201831D01*
Y196831D01*
X193169D01*
Y188905D01*
X186831D01*
Y196831D01*
X178169D01*
Y190436D01*
X177707Y190244D01*
X176958Y190993D01*
X176502Y191298D01*
X175965Y191405D01*
X153968D01*
X153919Y191478D01*
X153268Y191913D01*
X152500Y192066D01*
X151732Y191913D01*
X151081Y191478D01*
X150646Y190827D01*
X150493Y190059D01*
X150623Y189405D01*
X150348Y188905D01*
X96050D01*
X95852Y189405D01*
X96469Y190209D01*
X96926Y191314D01*
X97017Y192000D01*
X92500D01*
X87983D01*
X88074Y191314D01*
X88531Y190209D01*
X89148Y189405D01*
X88950Y188905D01*
X80707D01*
X80546Y189378D01*
X80589Y189411D01*
X81283Y190316D01*
X81719Y191369D01*
X81868Y192500D01*
X81719Y193631D01*
X81283Y194684D01*
X80589Y195589D01*
X79684Y196283D01*
X78631Y196719D01*
X77500Y196868D01*
X76370Y196719D01*
X75316Y196283D01*
X74411Y195589D01*
X73717Y194684D01*
X73281Y193631D01*
X73132Y192500D01*
X73281Y191369D01*
X73717Y190316D01*
X74411Y189411D01*
X74454Y189378D01*
X74293Y188905D01*
X65707D01*
X65546Y189378D01*
X65589Y189411D01*
X66283Y190316D01*
X66719Y191369D01*
X66868Y192500D01*
X66719Y193631D01*
X66283Y194684D01*
X65589Y195589D01*
X64684Y196283D01*
X63630Y196719D01*
X62500Y196868D01*
X61370Y196719D01*
X60316Y196283D01*
X59411Y195589D01*
X58717Y194684D01*
X58394Y193905D01*
X50706D01*
X50546Y194378D01*
X50589Y194411D01*
X51283Y195316D01*
X51719Y196370D01*
X51868Y197500D01*
X51719Y198630D01*
X51283Y199684D01*
X50589Y200589D01*
X49684Y201283D01*
X48630Y201719D01*
X47500Y201868D01*
X46369Y201719D01*
X45316Y201283D01*
X44411Y200589D01*
X43717Y199684D01*
X43281Y198630D01*
X43132Y197500D01*
X43198Y196996D01*
X42725Y196762D01*
X31405Y208082D01*
Y217764D01*
X33447Y219807D01*
X33975Y219627D01*
X34048Y219075D01*
X34405Y218213D01*
X34973Y217473D01*
X35713Y216905D01*
X36575Y216548D01*
X37500Y216426D01*
X38425Y216548D01*
X38835Y216718D01*
X39218Y216335D01*
X39048Y215925D01*
X38926Y215000D01*
X39048Y214075D01*
X39123Y213893D01*
X38770Y213539D01*
X38480Y213659D01*
X38000Y213722D01*
Y210500D01*
X41223D01*
X41159Y210981D01*
X41039Y211270D01*
X41393Y211623D01*
X41575Y211548D01*
X42500Y211426D01*
X43425Y211548D01*
X44287Y211905D01*
X45027Y212473D01*
X45595Y213213D01*
X45952Y214075D01*
X46074Y215000D01*
X45952Y215925D01*
X45595Y216787D01*
X45027Y217527D01*
X44287Y218095D01*
X43425Y218452D01*
X42500Y218574D01*
X41575Y218452D01*
X41165Y218282D01*
X40782Y218665D01*
X40952Y219075D01*
X41074Y220000D01*
X40952Y220925D01*
X40595Y221787D01*
X40027Y222527D01*
X39287Y223095D01*
X39386Y223595D01*
X41918D01*
X46507Y219007D01*
X46962Y218702D01*
X47500Y218595D01*
X59247D01*
X59405Y218213D01*
X59973Y217473D01*
X60713Y216905D01*
X61575Y216548D01*
X62500Y216426D01*
X63425Y216548D01*
X63835Y216718D01*
X64218Y216335D01*
X64048Y215925D01*
X63926Y215000D01*
X64048Y214075D01*
X64123Y213893D01*
X63770Y213539D01*
X63481Y213659D01*
X63000Y213722D01*
Y210500D01*
X66223D01*
X66159Y210981D01*
X66039Y211270D01*
X66393Y211623D01*
X66575Y211548D01*
X67500Y211426D01*
X68425Y211548D01*
X69287Y211905D01*
X70027Y212473D01*
X70595Y213213D01*
X70952Y214075D01*
X71074Y215000D01*
X70952Y215925D01*
X70595Y216787D01*
X70027Y217527D01*
X69287Y218095D01*
X68425Y218452D01*
X67500Y218574D01*
X66575Y218452D01*
X66165Y218282D01*
X65782Y218665D01*
X65952Y219075D01*
X66074Y220000D01*
X65952Y220925D01*
X65595Y221787D01*
X65027Y222527D01*
X64287Y223095D01*
X63425Y223452D01*
X62500Y223574D01*
X61575Y223452D01*
X60713Y223095D01*
X59973Y222527D01*
X59405Y221787D01*
X59247Y221405D01*
X54652D01*
X54377Y221905D01*
X54507Y222559D01*
X54354Y223327D01*
X53919Y223978D01*
X53905Y223988D01*
Y226378D01*
X57700Y230173D01*
X58144Y229909D01*
X58281Y228870D01*
X58717Y227816D01*
X59411Y226911D01*
X60316Y226217D01*
X61370Y225781D01*
X62500Y225632D01*
X63630Y225781D01*
X64684Y226217D01*
X65589Y226911D01*
X66283Y227816D01*
X66606Y228595D01*
X112848D01*
X113123Y228095D01*
X112993Y227441D01*
X113146Y226673D01*
X113581Y226022D01*
X114232Y225587D01*
X115000Y225434D01*
X115066Y225447D01*
X121507Y219007D01*
X121962Y218702D01*
X122500Y218595D01*
X134247D01*
X134405Y218213D01*
X134973Y217473D01*
X135713Y216905D01*
X136575Y216548D01*
X137500Y216426D01*
X138425Y216548D01*
X138835Y216718D01*
X139218Y216335D01*
X139048Y215925D01*
X138926Y215000D01*
X139048Y214075D01*
X139218Y213665D01*
X138835Y213282D01*
X138425Y213452D01*
X137500Y213574D01*
X136575Y213452D01*
X135713Y213095D01*
X134973Y212527D01*
X134405Y211787D01*
X134048Y210925D01*
X133926Y210000D01*
X134048Y209075D01*
X134405Y208213D01*
X134973Y207473D01*
X135713Y206905D01*
X136575Y206548D01*
X137500Y206426D01*
X138425Y206548D01*
X139287Y206905D01*
X140027Y207473D01*
X140595Y208213D01*
X140952Y209075D01*
X141074Y210000D01*
X140952Y210925D01*
X140782Y211335D01*
X141165Y211718D01*
X141575Y211548D01*
X142500Y211426D01*
X143425Y211548D01*
X144287Y211905D01*
X145027Y212473D01*
X145595Y213213D01*
X145887Y213919D01*
X146414Y214099D01*
X155640Y204873D01*
X156096Y204568D01*
X156634Y204461D01*
X158492D01*
X158644Y203961D01*
X158581Y203919D01*
X158146Y203268D01*
X157993Y202500D01*
X158146Y201732D01*
X158581Y201081D01*
X159232Y200646D01*
X160000Y200493D01*
X160768Y200646D01*
X161419Y201081D01*
X161429Y201095D01*
X163950D01*
X164148Y200595D01*
X163531Y199791D01*
X163074Y198686D01*
X162983Y198000D01*
X167500D01*
X172017D01*
X171926Y198686D01*
X171469Y199791D01*
X170852Y200595D01*
X171050Y201095D01*
X176783D01*
X177321Y201202D01*
X177777Y201506D01*
X180731Y204461D01*
X189212D01*
X189750Y204568D01*
X190206Y204873D01*
X192275Y206942D01*
X196297D01*
X196835Y207049D01*
X197291Y207353D01*
X201033Y211095D01*
X208394D01*
X208717Y210316D01*
X209411Y209411D01*
X210316Y208717D01*
X211369Y208281D01*
X212500Y208132D01*
X213631Y208281D01*
X214684Y208717D01*
X215589Y209411D01*
X216283Y210316D01*
X216719Y211369D01*
X216868Y212500D01*
X216719Y213631D01*
X216283Y214684D01*
X215589Y215589D01*
X214684Y216283D01*
X213631Y216719D01*
X212500Y216868D01*
X211369Y216719D01*
X210316Y216283D01*
X209631Y215757D01*
X209395Y215993D01*
X208940Y216298D01*
X208402Y216405D01*
X195753D01*
X195595Y216787D01*
X195027Y217527D01*
X194287Y218095D01*
X193425Y218452D01*
X192500Y218574D01*
X191575Y218452D01*
X191165Y218282D01*
X190782Y218665D01*
X190952Y219075D01*
X191020Y219589D01*
X210221Y238790D01*
X210316Y238717D01*
X211369Y238281D01*
X212500Y238132D01*
X213631Y238281D01*
X214684Y238717D01*
X215589Y239411D01*
X216283Y240316D01*
X216719Y241370D01*
X216868Y242500D01*
X216719Y243631D01*
X216283Y244684D01*
X215589Y245589D01*
X214684Y246283D01*
X213631Y246719D01*
X212500Y246868D01*
X211369Y246719D01*
X210316Y246283D01*
X209411Y245589D01*
X208717Y244684D01*
X208674Y244581D01*
X208008Y244305D01*
X207432Y243863D01*
X187089Y223520D01*
X186575Y223452D01*
X186112Y223260D01*
X185875Y223291D01*
X163813D01*
X163425Y223452D01*
X162911Y223520D01*
X147812Y238619D01*
X147236Y239061D01*
X146566Y239338D01*
X145846Y239433D01*
X143881D01*
X143690Y239895D01*
X145917Y242123D01*
X146472Y241893D01*
X147500Y241757D01*
X148528Y241893D01*
X148819Y242013D01*
X160549Y230283D01*
X160493Y230000D01*
X160646Y229232D01*
X161081Y228581D01*
X161732Y228146D01*
X162500Y227993D01*
X163268Y228146D01*
X163919Y228581D01*
X164354Y229232D01*
X164507Y230000D01*
X164354Y230768D01*
X163919Y231419D01*
X163268Y231854D01*
X162874Y231933D01*
X150976Y243831D01*
X151336Y244701D01*
X151471Y245728D01*
Y249272D01*
X151336Y250299D01*
X150939Y251257D01*
X150308Y252080D01*
X149486Y252711D01*
X148528Y253107D01*
X147500Y253243D01*
X146472Y253107D01*
X145515Y252711D01*
X144692Y252080D01*
X144061Y251257D01*
X143664Y250299D01*
X143529Y249272D01*
Y245728D01*
X143664Y244701D01*
X143915Y244094D01*
X141226Y241405D01*
X138607D01*
X138528Y241893D01*
X139486Y242289D01*
X140308Y242920D01*
X140939Y243743D01*
X141336Y244701D01*
X141471Y245728D01*
Y249272D01*
X141336Y250299D01*
X140939Y251257D01*
X140308Y252080D01*
X139486Y252711D01*
X138528Y253107D01*
X137500Y253243D01*
X136472Y253107D01*
X135892Y252867D01*
X133966Y254793D01*
X133510Y255097D01*
X132972Y255204D01*
X121299D01*
X120762Y255097D01*
X120306Y254793D01*
X120007Y254494D01*
X119941Y254507D01*
X119173Y254354D01*
X118629Y253991D01*
X118310Y254379D01*
X121151Y257220D01*
X150997D01*
X151149Y256720D01*
X150927Y256573D01*
X150445Y255851D01*
X150376Y255500D01*
X154624D01*
X154554Y255851D01*
X154072Y256573D01*
X153851Y256720D01*
X154003Y257220D01*
X200864D01*
X201056Y256758D01*
X197535Y253238D01*
X197500Y253243D01*
X196472Y253107D01*
X195515Y252711D01*
X194692Y252080D01*
X194061Y251257D01*
X193664Y250299D01*
X193529Y249272D01*
Y245728D01*
X193664Y244701D01*
X194061Y243743D01*
X194692Y242920D01*
X195515Y242289D01*
X196472Y241893D01*
X197500Y241757D01*
X198528Y241893D01*
X199486Y242289D01*
X200308Y242920D01*
X200939Y243743D01*
X201336Y244701D01*
X201471Y245728D01*
Y249272D01*
X201466Y249307D01*
X209380Y257220D01*
X226063D01*
Y256457D01*
X229612D01*
X230535Y255535D01*
X231110Y255093D01*
X231781Y254815D01*
X232500Y254720D01*
X265000D01*
X265719Y254815D01*
X266390Y255093D01*
X266966Y255535D01*
X267407Y256110D01*
X267685Y256781D01*
X267780Y257500D01*
X267685Y258219D01*
X267407Y258890D01*
X266966Y259466D01*
X266390Y259907D01*
X265719Y260185D01*
X265000Y260280D01*
X233937D01*
Y263543D01*
X226063D01*
Y262780D01*
X120000D01*
X119281Y262685D01*
X118610Y262407D01*
X118035Y261965D01*
X108986Y252917D01*
X108528Y253107D01*
X107500Y253243D01*
X106472Y253107D01*
X105515Y252711D01*
X104692Y252080D01*
X104061Y251257D01*
X103664Y250299D01*
X103529Y249272D01*
Y245728D01*
X103664Y244701D01*
X104061Y243743D01*
X104692Y242920D01*
X105515Y242289D01*
X106472Y241893D01*
X106393Y241405D01*
X98607D01*
X98528Y241893D01*
X99485Y242289D01*
X100308Y242920D01*
X100939Y243743D01*
X101336Y244701D01*
X101471Y245728D01*
Y249272D01*
X101336Y250299D01*
X100939Y251257D01*
X100308Y252080D01*
X99485Y252711D01*
X98528Y253107D01*
X97500Y253243D01*
X96472Y253107D01*
X95515Y252711D01*
X94692Y252080D01*
X94219Y251463D01*
X93660Y251455D01*
X93624Y251473D01*
X93493Y251668D01*
X90369Y254793D01*
X89913Y255097D01*
X89375Y255204D01*
X65625D01*
X65087Y255097D01*
X64631Y254793D01*
X61979Y252140D01*
X61674Y251685D01*
X61567Y251147D01*
Y251046D01*
X61067Y250947D01*
X60939Y251257D01*
X60308Y252080D01*
X59486Y252711D01*
X58528Y253107D01*
X57500Y253243D01*
X56472Y253107D01*
X55515Y252711D01*
X54692Y252080D01*
X54061Y251257D01*
X53664Y250299D01*
X53529Y249272D01*
Y245728D01*
X53664Y244701D01*
X54061Y243743D01*
X54692Y242920D01*
X55515Y242289D01*
X56472Y241893D01*
X57500Y241757D01*
X58528Y241893D01*
X59486Y242289D01*
X60308Y242920D01*
X60939Y243743D01*
X61336Y244701D01*
X61471Y245728D01*
Y246095D01*
X62281D01*
X62818Y246202D01*
X63029Y246343D01*
X63529Y246076D01*
Y245728D01*
X63664Y244701D01*
X64061Y243743D01*
X64692Y242920D01*
X65514Y242289D01*
X66472Y241893D01*
X67500Y241757D01*
X68528Y241893D01*
X69485Y242289D01*
X70308Y242920D01*
X70939Y243743D01*
X71336Y244701D01*
X71471Y245728D01*
Y249272D01*
X71336Y250299D01*
X70939Y251257D01*
X70450Y251894D01*
X70687Y252394D01*
X74313D01*
X74550Y251894D01*
X74061Y251257D01*
X73664Y250299D01*
X73529Y249272D01*
Y245728D01*
X73664Y244701D01*
X74061Y243743D01*
X74692Y242920D01*
X75515Y242289D01*
X76472Y241893D01*
X77500Y241757D01*
X78528Y241893D01*
X79485Y242289D01*
X80308Y242920D01*
X80939Y243743D01*
X81336Y244701D01*
X81471Y245728D01*
Y249272D01*
X81336Y250299D01*
X80939Y251257D01*
X80450Y251894D01*
X80687Y252394D01*
X84313D01*
X84550Y251894D01*
X84061Y251257D01*
X83664Y250299D01*
X83529Y249272D01*
Y245728D01*
X83664Y244701D01*
X84061Y243743D01*
X84692Y242920D01*
X85514Y242289D01*
X86472Y241893D01*
X87500Y241757D01*
X88528Y241893D01*
X89486Y242289D01*
X90308Y242920D01*
X90781Y243537D01*
X91340Y243545D01*
X91376Y243527D01*
X91507Y243332D01*
X93329Y241509D01*
X93138Y241047D01*
X59075D01*
X58356Y240953D01*
X57686Y240675D01*
X57110Y240233D01*
X56310Y239433D01*
X30245D01*
X29526Y239338D01*
X28855Y239061D01*
X28280Y238619D01*
X27440Y237780D01*
X20003D01*
X19551Y238369D01*
X18564Y239127D01*
X17780Y239452D01*
Y299148D01*
X17685Y299867D01*
X17407Y300538D01*
X16965Y301113D01*
X16716Y301362D01*
X16719Y301370D01*
X16868Y302500D01*
X16719Y303630D01*
X16283Y304684D01*
X15589Y305589D01*
X14684Y306283D01*
X13631Y306719D01*
X12500Y306868D01*
X11370Y306719D01*
X10316Y306283D01*
X9411Y305589D01*
X8717Y304684D01*
X8281Y303630D01*
X8132Y302500D01*
X8281Y301370D01*
X8717Y300316D01*
X9411Y299411D01*
X10316Y298717D01*
X11370Y298281D01*
X12022Y298195D01*
X12220Y297996D01*
Y239452D01*
X11436Y239127D01*
X10449Y238369D01*
X9692Y237383D01*
X9216Y236233D01*
X9054Y235000D01*
X9216Y233767D01*
X9692Y232617D01*
X10449Y231630D01*
X11436Y230873D01*
X12586Y230397D01*
X13687Y230252D01*
Y229748D01*
X12586Y229603D01*
X11436Y229127D01*
X10449Y228369D01*
X9692Y227383D01*
X9216Y226233D01*
X9054Y225000D01*
X9216Y223767D01*
X9692Y222617D01*
X10449Y221631D01*
X11436Y220873D01*
X12586Y220397D01*
X13687Y220252D01*
Y219748D01*
X12586Y219603D01*
X11436Y219127D01*
X10449Y218370D01*
X9692Y217383D01*
X9216Y216233D01*
X9054Y215000D01*
X9216Y213767D01*
X9692Y212617D01*
X10449Y211631D01*
X11436Y210873D01*
X12586Y210397D01*
X13819Y210235D01*
X16181D01*
X17414Y210397D01*
X18564Y210873D01*
X19551Y211631D01*
X20308Y212617D01*
X20784Y213767D01*
X20946Y215000D01*
X20784Y216233D01*
X20308Y217383D01*
X19551Y218370D01*
X18564Y219127D01*
X17414Y219603D01*
X16313Y219748D01*
Y220252D01*
X17414Y220397D01*
X18564Y220873D01*
X19551Y221631D01*
X20308Y222617D01*
X20784Y223767D01*
X20946Y225000D01*
X20784Y226233D01*
X20308Y227383D01*
X19551Y228369D01*
X18564Y229127D01*
X17414Y229603D01*
X16313Y229748D01*
Y230252D01*
X17414Y230397D01*
X18564Y230873D01*
X19551Y231630D01*
X20003Y232220D01*
X28052D01*
X28330Y231805D01*
X28074Y231186D01*
X27983Y230500D01*
X37017D01*
X36926Y231186D01*
X36469Y232291D01*
X35740Y233240D01*
X35532Y233400D01*
X35692Y233874D01*
X56774D01*
X56965Y233412D01*
X51507Y227953D01*
X51202Y227497D01*
X51095Y226960D01*
Y223988D01*
X51081Y223978D01*
X50646Y223327D01*
X50493Y222559D01*
X50623Y221905D01*
X50348Y221405D01*
X48082D01*
X43494Y225993D01*
X43038Y226298D01*
X42500Y226405D01*
X36654D01*
X36116Y226298D01*
X35660Y225993D01*
X29006Y219340D01*
X28702Y218884D01*
X28595Y218346D01*
Y207500D01*
X28702Y206962D01*
X29006Y206507D01*
X33238Y202275D01*
X33004Y201802D01*
X32500Y201868D01*
X31370Y201719D01*
X30316Y201283D01*
X29411Y200589D01*
X28717Y199684D01*
X28281Y198630D01*
X28132Y197500D01*
X28281Y196370D01*
X28717Y195316D01*
X29411Y194411D01*
X30316Y193717D01*
X31370Y193281D01*
X32500Y193132D01*
X33630Y193281D01*
X34684Y193717D01*
X35589Y194411D01*
X36283Y195316D01*
X36719Y196370D01*
X36868Y197500D01*
X36802Y198004D01*
X37275Y198238D01*
X44006Y191507D01*
X44462Y191202D01*
X45000Y191095D01*
X58394D01*
X58717Y190316D01*
X59411Y189411D01*
X59454Y189378D01*
X59293Y188905D01*
X28082D01*
X21396Y195590D01*
X21719Y196370D01*
X21868Y197500D01*
X21719Y198630D01*
X21283Y199684D01*
X20589Y200589D01*
X19684Y201283D01*
X18631Y201719D01*
X17500Y201868D01*
X16369Y201719D01*
X15316Y201283D01*
X14411Y200589D01*
X13717Y199684D01*
X13281Y198630D01*
X13132Y197500D01*
X13281Y196370D01*
X13717Y195316D01*
X14411Y194411D01*
X15316Y193717D01*
X16369Y193281D01*
X17500Y193132D01*
X18631Y193281D01*
X19410Y193604D01*
X25546Y187467D01*
X25299Y187007D01*
X25000Y187066D01*
X24232Y186913D01*
X23581Y186478D01*
X23146Y185827D01*
X22993Y185059D01*
X23123Y184405D01*
X22848Y183905D01*
X10582D01*
X6405Y188082D01*
Y248571D01*
X6419Y248581D01*
X6854Y249232D01*
X7007Y250000D01*
X6854Y250768D01*
X6419Y251419D01*
X5768Y251854D01*
X5000Y252007D01*
X4232Y251854D01*
X3581Y251419D01*
X3146Y250768D01*
X2993Y250000D01*
X3146Y249232D01*
X3581Y248581D01*
X3595Y248571D01*
Y187500D01*
X3702Y186962D01*
X4007Y186506D01*
X9007Y181507D01*
X9462Y181202D01*
X10000Y181095D01*
X15229D01*
X15272Y180968D01*
X15348Y180595D01*
X14907Y180021D01*
X14608Y179299D01*
X14572Y179024D01*
X20428D01*
X20392Y179299D01*
X20093Y180021D01*
X19652Y180595D01*
X19728Y180968D01*
X19771Y181095D01*
X28401D01*
X28608Y180595D01*
X24006Y175994D01*
X23702Y175538D01*
X23595Y175000D01*
Y158192D01*
X23702Y157654D01*
X24006Y157198D01*
X32198Y149006D01*
X32654Y148702D01*
X33192Y148595D01*
X69772D01*
X78968Y139399D01*
X78777Y138937D01*
X73957D01*
Y131063D01*
X81043D01*
Y136671D01*
X81505Y136862D01*
X116861Y101507D01*
X117317Y101202D01*
X117854Y101095D01*
X128125D01*
X128295Y100595D01*
X127920Y100308D01*
X127289Y99485D01*
X126893Y98528D01*
X126757Y97500D01*
X126893Y96472D01*
X127289Y95515D01*
X127920Y94692D01*
X128743Y94061D01*
X129701Y93664D01*
X130728Y93529D01*
X134272D01*
X135299Y93664D01*
X136257Y94061D01*
X137080Y94692D01*
X137711Y95515D01*
X138107Y96472D01*
X138243Y97500D01*
X138107Y98528D01*
X137711Y99485D01*
X137080Y100308D01*
X136705Y100595D01*
X136875Y101095D01*
X158125D01*
X158295Y100595D01*
X157920Y100308D01*
X157289Y99485D01*
X156893Y98528D01*
X156757Y97500D01*
X156893Y96472D01*
X157289Y95515D01*
X157920Y94692D01*
X158743Y94061D01*
X159701Y93664D01*
X160728Y93529D01*
X164272D01*
X165299Y93664D01*
X166257Y94061D01*
X167080Y94692D01*
X167711Y95515D01*
X167951Y96095D01*
X194549D01*
X194789Y95515D01*
X195420Y94692D01*
X195795Y94405D01*
X195625Y93905D01*
X192500D01*
X191962Y93798D01*
X191507Y93493D01*
X177394Y79381D01*
X176933Y79627D01*
X177007Y80000D01*
X176854Y80768D01*
X176419Y81419D01*
X175768Y81854D01*
X175000Y82007D01*
X174232Y81854D01*
X173581Y81419D01*
X173146Y80768D01*
X172993Y80000D01*
X172996Y79983D01*
X158887Y65873D01*
X108230D01*
X108038Y66335D01*
X112798Y71095D01*
X138571D01*
X138581Y71081D01*
X139232Y70646D01*
X140000Y70493D01*
X140768Y70646D01*
X141419Y71081D01*
X141854Y71732D01*
X142007Y72500D01*
X141854Y73268D01*
X141419Y73919D01*
X140768Y74354D01*
X140000Y74507D01*
X139232Y74354D01*
X138581Y73919D01*
X138571Y73905D01*
X112216D01*
X111679Y73798D01*
X111223Y73493D01*
X96634Y58905D01*
X82500D01*
X81962Y58798D01*
X81507Y58493D01*
X66361Y43348D01*
X66056Y42892D01*
X65949Y42354D01*
Y34064D01*
X64894D01*
X64046Y33952D01*
X63256Y33625D01*
X62577Y33104D01*
X62057Y32425D01*
X61729Y31635D01*
X61618Y30787D01*
Y4213D01*
X61729Y3365D01*
X62057Y2575D01*
X62577Y1896D01*
X63068Y1519D01*
X62898Y1020D01*
X56569D01*
X56400Y1519D01*
X56693Y1744D01*
X57247Y2467D01*
X57596Y3309D01*
X57715Y4213D01*
Y17000D01*
X51764D01*
X45813D01*
Y4213D01*
X45932Y3309D01*
X46280Y2467D01*
X46835Y1744D01*
X47128Y1519D01*
X46958Y1020D01*
X7042D01*
X5751Y1276D01*
X4536Y1780D01*
X3441Y2511D01*
X2511Y3441D01*
X1780Y4536D01*
X1276Y5751D01*
X1020Y7042D01*
Y7700D01*
Y384800D01*
Y385460D01*
X1277Y386754D01*
X1782Y387974D01*
X2515Y389071D01*
X3449Y390004D01*
X4546Y390738D01*
X5765Y391243D01*
X7060Y391500D01*
X7720Y391500D01*
X268140D01*
X269434Y391243D01*
D02*
G37*
G36*
X190623Y178154D02*
X190493Y177500D01*
X190646Y176732D01*
X191081Y176081D01*
X191095Y176071D01*
Y175042D01*
X187146Y171092D01*
X186719Y171370D01*
X186868Y172500D01*
X186719Y173630D01*
X186283Y174684D01*
X185589Y175589D01*
X184684Y176283D01*
X183631Y176719D01*
X182500Y176868D01*
X181369Y176719D01*
X180316Y176283D01*
X179411Y175589D01*
X178717Y174684D01*
X178281Y173630D01*
X178132Y172500D01*
X178281Y171370D01*
X178717Y170316D01*
X179411Y169411D01*
X180316Y168717D01*
X181369Y168281D01*
X182500Y168132D01*
X183631Y168281D01*
X183908Y167854D01*
X180269Y164215D01*
X179964Y163760D01*
X179857Y163222D01*
Y158669D01*
X168733Y147545D01*
X168212Y147732D01*
X168107Y148528D01*
X167711Y149486D01*
X167080Y150308D01*
X166257Y150939D01*
X165299Y151336D01*
X164272Y151471D01*
X160728D01*
X159701Y151336D01*
X158743Y150939D01*
X157920Y150308D01*
X157899Y150280D01*
X145620D01*
X136434Y159466D01*
X135858Y159907D01*
X135188Y160185D01*
X134468Y160280D01*
X101120D01*
X100969Y160780D01*
X101419Y161081D01*
X101429Y161095D01*
X159418D01*
X165496Y155017D01*
X165493Y155000D01*
X165646Y154232D01*
X166081Y153581D01*
X166732Y153146D01*
X167500Y152993D01*
X168268Y153146D01*
X168919Y153581D01*
X169354Y154232D01*
X169507Y155000D01*
X169354Y155768D01*
X168919Y156419D01*
X168268Y156854D01*
X167500Y157007D01*
X167483Y157004D01*
X160994Y163494D01*
X160538Y163798D01*
X160000Y163905D01*
X155707D01*
X155546Y164378D01*
X155589Y164411D01*
X156283Y165316D01*
X156719Y166369D01*
X156868Y167500D01*
X156719Y168631D01*
X156396Y169410D01*
X158082Y171095D01*
X164294D01*
X164454Y170622D01*
X164411Y170589D01*
X163717Y169684D01*
X163281Y168631D01*
X163132Y167500D01*
X163281Y166369D01*
X163717Y165316D01*
X164411Y164411D01*
X165316Y163717D01*
X166369Y163281D01*
X167500Y163132D01*
X168631Y163281D01*
X169684Y163717D01*
X170589Y164411D01*
X171283Y165316D01*
X171719Y166369D01*
X171868Y167500D01*
X171719Y168631D01*
X171283Y169684D01*
X170589Y170589D01*
X170546Y170622D01*
X170706Y171095D01*
X173571D01*
X173581Y171081D01*
X174232Y170646D01*
X175000Y170493D01*
X175768Y170646D01*
X176419Y171081D01*
X176854Y171732D01*
X177007Y172500D01*
X176854Y173268D01*
X176419Y173919D01*
X175768Y174354D01*
X175000Y174507D01*
X174232Y174354D01*
X173581Y173919D01*
X173571Y173905D01*
X157500D01*
X156962Y173798D01*
X156507Y173494D01*
X154410Y171397D01*
X153630Y171719D01*
X152500Y171868D01*
X151370Y171719D01*
X150316Y171283D01*
X149411Y170589D01*
X148717Y169684D01*
X148281Y168631D01*
X148132Y167500D01*
X148281Y166369D01*
X148717Y165316D01*
X149411Y164411D01*
X149454Y164378D01*
X149293Y163905D01*
X140598D01*
X140429Y164405D01*
X141089Y164911D01*
X141783Y165816D01*
X142219Y166869D01*
X142368Y168000D01*
X142219Y169131D01*
X141907Y169884D01*
X142000Y169998D01*
Y172000D01*
X139998D01*
X139884Y171907D01*
X139130Y172219D01*
X138091Y172356D01*
X137827Y172800D01*
X143681Y178654D01*
X162592D01*
X162906Y178154D01*
X162876Y178000D01*
X167124D01*
X167094Y178154D01*
X167408Y178654D01*
X190348D01*
X190623Y178154D01*
D02*
G37*
G36*
X79756Y177293D02*
X79564Y176831D01*
X73169D01*
Y168169D01*
X81831D01*
Y174564D01*
X82293Y174756D01*
X83585Y173463D01*
Y170975D01*
X83692Y170437D01*
X83997Y169981D01*
X87392Y166585D01*
X87848Y166281D01*
X88386Y166174D01*
X100619D01*
X101157Y166281D01*
X101612Y166585D01*
X102700Y167673D01*
X103144Y167410D01*
X103281Y166369D01*
X103717Y165316D01*
X104411Y164411D01*
X104454Y164378D01*
X104294Y163905D01*
X101429D01*
X101419Y163919D01*
X100768Y164354D01*
X100000Y164507D01*
X99232Y164354D01*
X98581Y163919D01*
X98146Y163268D01*
X97993Y162500D01*
X98146Y161732D01*
X98581Y161081D01*
X99031Y160780D01*
X98880Y160280D01*
X58651D01*
X51817Y167114D01*
X51868Y167500D01*
X51719Y168631D01*
X51283Y169684D01*
X50589Y170589D01*
X49684Y171283D01*
X48630Y171719D01*
X47500Y171868D01*
X46369Y171719D01*
X45316Y171283D01*
X44411Y170589D01*
X43717Y169684D01*
X43281Y168631D01*
X43132Y167500D01*
X43281Y166369D01*
X43717Y165316D01*
X44411Y164411D01*
X45316Y163717D01*
X46369Y163281D01*
X47500Y163132D01*
X47886Y163183D01*
X55534Y155535D01*
X56110Y155093D01*
X56781Y154815D01*
X57500Y154720D01*
X133317D01*
X136138Y151899D01*
X135947Y151437D01*
X126791D01*
Y143563D01*
X138209D01*
Y149175D01*
X138671Y149367D01*
X142503Y145535D01*
X143078Y145093D01*
X143749Y144815D01*
X144468Y144720D01*
X157899D01*
X157920Y144692D01*
X158431Y144300D01*
X158489Y143651D01*
X155207Y140369D01*
X154903Y139913D01*
X154796Y139375D01*
Y132028D01*
X154903Y131490D01*
X155207Y131034D01*
X157133Y129108D01*
X156893Y128528D01*
X156757Y127500D01*
X156893Y126472D01*
X157289Y125514D01*
X157920Y124692D01*
X158295Y124405D01*
X158125Y123905D01*
X148082D01*
X139504Y132483D01*
X139507Y132500D01*
X139354Y133268D01*
X138919Y133919D01*
X138268Y134354D01*
X137559Y134495D01*
X137412Y134711D01*
X137298Y134977D01*
X137711Y135514D01*
X138107Y136472D01*
X138243Y137500D01*
X138107Y138528D01*
X137711Y139486D01*
X137080Y140308D01*
X136257Y140939D01*
X135299Y141336D01*
X134272Y141471D01*
X130728D01*
X129701Y141336D01*
X128743Y140939D01*
X127920Y140308D01*
X127289Y139486D01*
X126893Y138528D01*
X126757Y137500D01*
X126893Y136472D01*
X127289Y135514D01*
X127652Y135042D01*
X127275Y134712D01*
X125994Y135994D01*
X125538Y136298D01*
X125000Y136405D01*
X98929D01*
X98919Y136419D01*
X98268Y136854D01*
X97500Y137007D01*
X96732Y136854D01*
X96081Y136419D01*
X95646Y135768D01*
X95493Y135000D01*
X95646Y134232D01*
X96081Y133581D01*
X96732Y133146D01*
X97500Y132993D01*
X98268Y133146D01*
X98919Y133581D01*
X98929Y133595D01*
X124418D01*
X127827Y130186D01*
X127289Y129485D01*
X126893Y128528D01*
X126757Y127500D01*
X126893Y126472D01*
X127289Y125514D01*
X127920Y124692D01*
X128743Y124061D01*
X129701Y123664D01*
X130728Y123529D01*
X134272D01*
X135299Y123664D01*
X136257Y124061D01*
X137080Y124692D01*
X137711Y125514D01*
X138107Y126472D01*
X138243Y127500D01*
X138107Y128528D01*
X137711Y129485D01*
X137348Y129958D01*
X137725Y130288D01*
X146507Y121507D01*
X146962Y121202D01*
X147500Y121095D01*
X158125D01*
X158295Y120595D01*
X157920Y120308D01*
X157289Y119485D01*
X156893Y118528D01*
X156757Y117500D01*
X156893Y116472D01*
X157289Y115515D01*
X157920Y114692D01*
X158743Y114061D01*
X159701Y113664D01*
X160728Y113529D01*
X164272D01*
X165299Y113664D01*
X165880Y113905D01*
X173278Y106507D01*
X173734Y106202D01*
X174272Y106095D01*
X194549D01*
X194789Y105515D01*
X195420Y104692D01*
X195795Y104405D01*
X195625Y103905D01*
X166875D01*
X166705Y104405D01*
X167080Y104692D01*
X167711Y105515D01*
X168107Y106472D01*
X168243Y107500D01*
X168107Y108528D01*
X167711Y109485D01*
X167080Y110308D01*
X166257Y110939D01*
X165299Y111336D01*
X164272Y111471D01*
X160728D01*
X159701Y111336D01*
X158743Y110939D01*
X157920Y110308D01*
X157289Y109485D01*
X156893Y108528D01*
X156757Y107500D01*
X156893Y106472D01*
X157289Y105515D01*
X157920Y104692D01*
X158295Y104405D01*
X158125Y103905D01*
X136875D01*
X136705Y104405D01*
X137080Y104692D01*
X137711Y105515D01*
X138107Y106472D01*
X138243Y107500D01*
X138107Y108528D01*
X137711Y109485D01*
X137080Y110308D01*
X136257Y110939D01*
X135299Y111336D01*
X134272Y111471D01*
X130728D01*
X129701Y111336D01*
X128743Y110939D01*
X127920Y110308D01*
X127289Y109485D01*
X126893Y108528D01*
X126757Y107500D01*
X126893Y106472D01*
X127289Y105515D01*
X127920Y104692D01*
X128295Y104405D01*
X128125Y103905D01*
X118436D01*
X71348Y150994D01*
X70892Y151298D01*
X70354Y151405D01*
X33774D01*
X26405Y158774D01*
Y174418D01*
X30582Y178595D01*
X46071D01*
X46081Y178581D01*
X46732Y178146D01*
X47500Y177993D01*
X48268Y178146D01*
X48919Y178581D01*
X49354Y179232D01*
X49507Y180000D01*
X49377Y180654D01*
X49652Y181154D01*
X75894D01*
X79756Y177293D01*
D02*
G37*
G36*
X105172Y185647D02*
X105093Y185543D01*
X104815Y184873D01*
X104720Y184153D01*
X104815Y183434D01*
X105093Y182764D01*
X105535Y182188D01*
X106110Y181746D01*
X106781Y181469D01*
X107500Y181374D01*
X112765D01*
X113000Y180933D01*
X112945Y180851D01*
X112876Y180500D01*
X117124D01*
X117054Y180851D01*
X117000Y180933D01*
X117236Y181374D01*
X128121D01*
X128610Y180998D01*
X129281Y180721D01*
X130000Y180626D01*
X141026D01*
X141217Y180164D01*
X134899Y173846D01*
X132152D01*
X131877Y174346D01*
X132007Y175000D01*
X131854Y175768D01*
X131419Y176419D01*
X130768Y176854D01*
X130000Y177007D01*
X129232Y176854D01*
X128581Y176419D01*
X128571Y176405D01*
X99617D01*
X90427Y185595D01*
X90634Y186095D01*
X104951D01*
X105172Y185647D01*
D02*
G37*
G36*
X193144Y172409D02*
X193281Y171370D01*
X193717Y170316D01*
X194411Y169411D01*
X195316Y168717D01*
X196370Y168281D01*
X197500Y168132D01*
X198630Y168281D01*
X199373Y168588D01*
X199656Y168164D01*
X186996Y155504D01*
X186691Y155048D01*
X186584Y154511D01*
Y147011D01*
X186691Y146473D01*
X186996Y146017D01*
X191507Y141507D01*
X191962Y141202D01*
X192500Y141095D01*
X195625D01*
X195795Y140595D01*
X195420Y140308D01*
X194789Y139486D01*
X194549Y138905D01*
X167951D01*
X167711Y139486D01*
X167080Y140308D01*
X166257Y140939D01*
X165947Y141068D01*
X166046Y141568D01*
X166147D01*
X166685Y141674D01*
X167140Y141979D01*
X167332Y142170D01*
X167875Y142006D01*
X167946Y141649D01*
X168428Y140928D01*
X169149Y140445D01*
X169500Y140376D01*
Y142500D01*
X170000D01*
Y143000D01*
X172124D01*
X172055Y143351D01*
X171572Y144072D01*
X170851Y144554D01*
X170494Y144625D01*
X170330Y145168D01*
X179832Y154670D01*
X180375Y154506D01*
X180446Y154149D01*
X180928Y153428D01*
X181649Y152945D01*
X182000Y152876D01*
Y155000D01*
X182500D01*
Y155500D01*
X184624D01*
X184555Y155851D01*
X184072Y156572D01*
X183351Y157054D01*
X182892Y157146D01*
X182808Y157248D01*
X182593Y157713D01*
X182667Y158088D01*
Y162640D01*
X192700Y172673D01*
X193144Y172409D01*
D02*
G37*
G36*
X224633Y139108D02*
X224393Y138528D01*
X224257Y137500D01*
X224393Y136472D01*
X224789Y135514D01*
X225420Y134692D01*
X225795Y134405D01*
X225625Y133905D01*
X221155D01*
X220618Y133798D01*
X220162Y133493D01*
X215573Y128905D01*
X205451D01*
X205211Y129485D01*
X204580Y130308D01*
X203757Y130939D01*
X202799Y131336D01*
X201772Y131471D01*
X198228D01*
X197201Y131336D01*
X196243Y130939D01*
X195420Y130308D01*
X194789Y129485D01*
X194549Y128905D01*
X176429D01*
X176419Y128919D01*
X175768Y129354D01*
X175000Y129507D01*
X174232Y129354D01*
X173581Y128919D01*
X173146Y128268D01*
X172993Y127500D01*
X173146Y126732D01*
X173581Y126081D01*
X174232Y125646D01*
X175000Y125493D01*
X175768Y125646D01*
X176419Y126081D01*
X176429Y126095D01*
X194549D01*
X194789Y125514D01*
X195420Y124692D01*
X196243Y124061D01*
X197201Y123664D01*
X198228Y123529D01*
X201772D01*
X202799Y123664D01*
X203757Y124061D01*
X204580Y124692D01*
X205211Y125514D01*
X205451Y126095D01*
X216155D01*
X216693Y126202D01*
X217149Y126506D01*
X221737Y131095D01*
X225625D01*
X225795Y130595D01*
X225420Y130308D01*
X224789Y129485D01*
X224393Y128528D01*
X224257Y127500D01*
X224393Y126472D01*
X224789Y125514D01*
X225420Y124692D01*
X225795Y124405D01*
X225625Y123905D01*
X206772D01*
X206234Y123798D01*
X205778Y123494D01*
X203380Y121095D01*
X202799Y121336D01*
X201772Y121471D01*
X198228D01*
X197201Y121336D01*
X196243Y120939D01*
X195420Y120308D01*
X194789Y119485D01*
X194393Y118528D01*
X194257Y117500D01*
X194393Y116472D01*
X194789Y115515D01*
X195420Y114692D01*
X195795Y114405D01*
X195625Y113905D01*
X179332D01*
X169744Y123494D01*
X169288Y123798D01*
X168750Y123905D01*
X166875D01*
X166705Y124405D01*
X167080Y124692D01*
X167711Y125514D01*
X168107Y126472D01*
X168243Y127500D01*
X168107Y128528D01*
X167711Y129485D01*
X167080Y130308D01*
X166257Y130939D01*
X165299Y131336D01*
X164272Y131471D01*
X160728D01*
X159701Y131336D01*
X159120Y131095D01*
X157606Y132609D01*
Y134313D01*
X158106Y134550D01*
X158743Y134061D01*
X159701Y133664D01*
X160728Y133529D01*
X164272D01*
X165299Y133664D01*
X166257Y134061D01*
X167080Y134692D01*
X167711Y135514D01*
X167951Y136095D01*
X194549D01*
X194789Y135514D01*
X195420Y134692D01*
X196243Y134061D01*
X197201Y133664D01*
X198228Y133529D01*
X201772D01*
X202799Y133664D01*
X203757Y134061D01*
X204580Y134692D01*
X205211Y135514D01*
X205607Y136472D01*
X205743Y137500D01*
X205607Y138528D01*
X205211Y139486D01*
X204580Y140308D01*
X204205Y140595D01*
X204375Y141095D01*
X222646D01*
X224633Y139108D01*
D02*
G37*
G36*
X230208Y175364D02*
X246095Y159477D01*
Y125582D01*
X244418Y123905D01*
X234375D01*
X234205Y124405D01*
X234580Y124692D01*
X235211Y125514D01*
X235607Y126472D01*
X235743Y127500D01*
X235607Y128528D01*
X235211Y129485D01*
X234580Y130308D01*
X233963Y130781D01*
X233955Y131340D01*
X233973Y131376D01*
X234168Y131507D01*
X240993Y138332D01*
X241298Y138788D01*
X241405Y139325D01*
Y162500D01*
X241298Y163038D01*
X240993Y163494D01*
X229608Y174879D01*
X229739Y175231D01*
X229907Y175372D01*
X230208Y175364D01*
D02*
G37*
G36*
X241095Y103726D02*
Y78810D01*
X233380Y71095D01*
X232799Y71336D01*
X231772Y71471D01*
X228228D01*
X227201Y71336D01*
X226243Y70939D01*
X225420Y70308D01*
X224789Y69485D01*
X224393Y68528D01*
X224288Y67732D01*
X223767Y67545D01*
X216641Y74671D01*
Y80438D01*
X216534Y80976D01*
X216230Y81432D01*
X204168Y93493D01*
X203973Y93624D01*
X203955Y93660D01*
X203963Y94219D01*
X204580Y94692D01*
X205211Y95515D01*
X205607Y96472D01*
X205743Y97500D01*
X205607Y98528D01*
X205211Y99485D01*
X204580Y100308D01*
X204205Y100595D01*
X204375Y101095D01*
X223228D01*
X223766Y101202D01*
X224222Y101507D01*
X226620Y103905D01*
X227201Y103664D01*
X228228Y103529D01*
X231772D01*
X232799Y103664D01*
X233757Y104061D01*
X234580Y104692D01*
X235211Y105515D01*
X235607Y106472D01*
X235743Y107500D01*
X235611Y108504D01*
X235643Y108542D01*
X236068Y108754D01*
X241095Y103726D01*
D02*
G37*
G36*
X128608Y60595D02*
X113133Y45119D01*
X112828Y44664D01*
X112721Y44126D01*
Y34064D01*
X111665D01*
X110818Y33952D01*
X110027Y33625D01*
X109349Y33104D01*
X108828Y32425D01*
X108501Y31635D01*
X108389Y30787D01*
Y4213D01*
X108501Y3365D01*
X108828Y2575D01*
X109349Y1896D01*
X109840Y1519D01*
X109670Y1020D01*
X102992D01*
X102822Y1519D01*
X103313Y1896D01*
X103833Y2575D01*
X104160Y3365D01*
X104272Y4213D01*
Y30787D01*
X104160Y31635D01*
X103833Y32425D01*
X103313Y33104D01*
X102634Y33625D01*
X101844Y33952D01*
X100996Y34064D01*
X99940D01*
Y40453D01*
X112336Y52849D01*
X112797Y52603D01*
X112776Y52500D01*
X112945Y51649D01*
X113427Y50928D01*
X114149Y50445D01*
X114500Y50376D01*
Y52500D01*
X115000D01*
Y53000D01*
X117124D01*
X117054Y53351D01*
X116572Y54072D01*
X115851Y54554D01*
X115000Y54724D01*
X114897Y54703D01*
X114651Y55164D01*
X120582Y61095D01*
X128401D01*
X128608Y60595D01*
D02*
G37*
G36*
X118115Y62602D02*
X100164Y44651D01*
X99703Y44897D01*
X99724Y45000D01*
X99555Y45851D01*
X99072Y46573D01*
X98351Y47055D01*
X98000Y47124D01*
Y45000D01*
X97500D01*
Y44500D01*
X95376D01*
X95446Y44149D01*
X95928Y43428D01*
X96649Y42945D01*
X97500Y42776D01*
X97603Y42797D01*
X97849Y42336D01*
X97542Y42029D01*
X97237Y41573D01*
X97131Y41035D01*
Y34064D01*
X96075D01*
X95227Y33952D01*
X94437Y33625D01*
X93758Y33104D01*
X93238Y32425D01*
X92910Y31635D01*
X92799Y30787D01*
Y4213D01*
X92910Y3365D01*
X93238Y2575D01*
X93758Y1896D01*
X94249Y1519D01*
X94079Y1020D01*
X87401D01*
X87231Y1519D01*
X87722Y1896D01*
X88243Y2575D01*
X88570Y3365D01*
X88682Y4213D01*
Y30787D01*
X88570Y31635D01*
X88243Y32425D01*
X87722Y33104D01*
X87044Y33625D01*
X86253Y33952D01*
X85405Y34064D01*
X84350D01*
Y39863D01*
X107551Y63064D01*
X117923D01*
X118115Y62602D01*
D02*
G37*
G36*
X186108Y48095D02*
X177664Y39651D01*
X177203Y39897D01*
X177224Y40000D01*
X177055Y40851D01*
X176573Y41572D01*
X175851Y42055D01*
X175500Y42124D01*
Y40000D01*
X175000D01*
Y39500D01*
X172876D01*
X172945Y39149D01*
X173427Y38427D01*
X174149Y37945D01*
X175000Y37776D01*
X175127Y37802D01*
X175173Y37762D01*
X175405Y37347D01*
X175190Y37026D01*
X175083Y36488D01*
Y34064D01*
X174028D01*
X173180Y33952D01*
X172389Y33625D01*
X171711Y33104D01*
X171190Y32425D01*
X170863Y31635D01*
X170752Y30787D01*
Y4213D01*
X170863Y3365D01*
X171190Y2575D01*
X171711Y1896D01*
X172202Y1519D01*
X172032Y1020D01*
X165354D01*
X165184Y1519D01*
X165675Y1896D01*
X166195Y2575D01*
X166523Y3365D01*
X166634Y4213D01*
Y30787D01*
X166523Y31635D01*
X166195Y32425D01*
X165675Y33104D01*
X164996Y33625D01*
X164206Y33952D01*
X163358Y34064D01*
X162606D01*
X162428Y34563D01*
X176460Y48595D01*
X185901D01*
X186108Y48095D01*
D02*
G37*
G36*
X201108Y45595D02*
X191085Y35572D01*
X190781Y35116D01*
X190674Y34579D01*
Y34064D01*
X189618D01*
X188770Y33952D01*
X187980Y33625D01*
X187302Y33104D01*
X186781Y32425D01*
X186454Y31635D01*
X186342Y30787D01*
Y4213D01*
X186454Y3365D01*
X186781Y2575D01*
X187302Y1896D01*
X187792Y1519D01*
X187623Y1020D01*
X180944D01*
X180775Y1519D01*
X181265Y1896D01*
X181786Y2575D01*
X182113Y3365D01*
X182225Y4213D01*
Y30787D01*
X182113Y31635D01*
X181786Y32425D01*
X181265Y33104D01*
X180587Y33625D01*
X179797Y33952D01*
X178949Y34064D01*
X177893D01*
Y35906D01*
X188082Y46095D01*
X200901D01*
X201108Y45595D01*
D02*
G37*
G36*
X174240Y50349D02*
X159904Y36013D01*
X159600Y35557D01*
X159493Y35020D01*
Y34064D01*
X158437D01*
X157589Y33952D01*
X156799Y33625D01*
X156121Y33104D01*
X155600Y32425D01*
X155273Y31635D01*
X155161Y30787D01*
Y4213D01*
X155273Y3365D01*
X155600Y2575D01*
X156121Y1896D01*
X156611Y1519D01*
X156441Y1020D01*
X149763D01*
X149593Y1519D01*
X150084Y1896D01*
X150605Y2575D01*
X150932Y3365D01*
X151044Y4213D01*
Y30787D01*
X150932Y31635D01*
X150605Y32425D01*
X150084Y33104D01*
X149406Y33625D01*
X148616Y33952D01*
X147768Y34064D01*
X146712D01*
Y37225D01*
X160298Y50811D01*
X174049D01*
X174240Y50349D01*
D02*
G37*
G36*
X158123Y55654D02*
X157993Y55000D01*
X158146Y54232D01*
X158518Y53674D01*
X158577Y53541D01*
X158528Y53015D01*
X144314Y38800D01*
X144009Y38345D01*
X143902Y37807D01*
Y34064D01*
X142847D01*
X141999Y33952D01*
X141208Y33625D01*
X140530Y33104D01*
X140009Y32425D01*
X139682Y31635D01*
X139570Y30787D01*
Y4213D01*
X139682Y3365D01*
X140009Y2575D01*
X140530Y1896D01*
X141021Y1519D01*
X140851Y1020D01*
X134173D01*
X134003Y1519D01*
X134494Y1896D01*
X135014Y2575D01*
X135342Y3365D01*
X135453Y4213D01*
Y30787D01*
X135342Y31635D01*
X135014Y32425D01*
X134494Y33104D01*
X133815Y33625D01*
X133025Y33952D01*
X132177Y34064D01*
X131122D01*
Y41635D01*
X145641Y56154D01*
X157848D01*
X158123Y55654D01*
D02*
G37*
G36*
X143608Y58095D02*
X128723Y43210D01*
X128419Y42754D01*
X128312Y42217D01*
Y34064D01*
X127256D01*
X126408Y33952D01*
X125618Y33625D01*
X124939Y33104D01*
X124419Y32425D01*
X124091Y31635D01*
X123980Y30787D01*
Y4213D01*
X124091Y3365D01*
X124419Y2575D01*
X124939Y1896D01*
X125430Y1519D01*
X125260Y1020D01*
X118582D01*
X118412Y1519D01*
X118903Y1896D01*
X119424Y2575D01*
X119751Y3365D01*
X119863Y4213D01*
Y30787D01*
X119751Y31635D01*
X119424Y32425D01*
X118903Y33104D01*
X118225Y33625D01*
X117435Y33952D01*
X116587Y34064D01*
X115531D01*
Y43544D01*
X130582Y58595D01*
X143401D01*
X143608Y58095D01*
D02*
G37*
G36*
X96146Y55633D02*
X81951Y41438D01*
X81647Y40982D01*
X81540Y40445D01*
Y34064D01*
X80484D01*
X79636Y33952D01*
X78846Y33625D01*
X78168Y33104D01*
X77647Y32425D01*
X77320Y31635D01*
X77208Y30787D01*
Y4213D01*
X77320Y3365D01*
X77647Y2575D01*
X78168Y1896D01*
X78658Y1519D01*
X78489Y1020D01*
X71811D01*
X71641Y1519D01*
X72132Y1896D01*
X72652Y2575D01*
X72979Y3365D01*
X73091Y4213D01*
Y30787D01*
X72979Y31635D01*
X72652Y32425D01*
X72132Y33104D01*
X71453Y33625D01*
X70663Y33952D01*
X69815Y34064D01*
X68759D01*
Y41772D01*
X83082Y56095D01*
X95955D01*
X96146Y55633D01*
D02*
G37*
%LPC*%
G36*
X260620Y384819D02*
X259380D01*
X259281Y384799D01*
X259181D01*
X257964Y384557D01*
X257871Y384519D01*
X257772Y384499D01*
X256626Y384024D01*
X256542Y383968D01*
X256450Y383930D01*
X255418Y383241D01*
X255347Y383170D01*
X255263Y383114D01*
X254386Y382237D01*
X254330Y382153D01*
X254259Y382082D01*
X253570Y381050D01*
X253532Y380958D01*
X253476Y380874D01*
X253001Y379728D01*
X252981Y379629D01*
X252943Y379536D01*
X252701Y378319D01*
Y378219D01*
X252681Y378120D01*
Y376880D01*
X252701Y376781D01*
Y376681D01*
X252943Y375464D01*
X252981Y375371D01*
X253001Y375272D01*
X253476Y374126D01*
X253532Y374043D01*
X253570Y373950D01*
X254259Y372918D01*
X254330Y372847D01*
X254386Y372763D01*
X255263Y371886D01*
X255347Y371830D01*
X255418Y371759D01*
X256450Y371070D01*
X256542Y371031D01*
X256626Y370976D01*
X257772Y370501D01*
X257871Y370481D01*
X257964Y370443D01*
X259181Y370201D01*
X259281D01*
X259380Y370181D01*
X260620D01*
X260719Y370201D01*
X260819D01*
X262036Y370443D01*
X262129Y370481D01*
X262228Y370501D01*
X263374Y370976D01*
X263457Y371031D01*
X263550Y371070D01*
X264582Y371759D01*
X264653Y371830D01*
X264737Y371886D01*
X265614Y372763D01*
X265670Y372847D01*
X265741Y372918D01*
X266430Y373950D01*
X266469Y374043D01*
X266524Y374126D01*
X266999Y375272D01*
X267019Y375371D01*
X267057Y375464D01*
X267299Y376681D01*
Y376781D01*
X267319Y376880D01*
Y378120D01*
X267299Y378219D01*
Y378319D01*
X267057Y379536D01*
X267019Y379629D01*
X266999Y379728D01*
X266524Y380874D01*
X266469Y380958D01*
X266430Y381050D01*
X265741Y382082D01*
X265670Y382153D01*
X265614Y382237D01*
X264737Y383114D01*
X264653Y383170D01*
X264582Y383241D01*
X263550Y383930D01*
X263457Y383968D01*
X263374Y384024D01*
X262228Y384499D01*
X262129Y384519D01*
X262036Y384557D01*
X260819Y384799D01*
X260719D01*
X260620Y384819D01*
D02*
G37*
G36*
X15620D02*
X14380D01*
X14281Y384799D01*
X14181D01*
X12964Y384557D01*
X12871Y384519D01*
X12772Y384499D01*
X11626Y384024D01*
X11542Y383968D01*
X11450Y383930D01*
X10418Y383241D01*
X10347Y383170D01*
X10264Y383114D01*
X9386Y382237D01*
X9330Y382153D01*
X9259Y382082D01*
X8570Y381050D01*
X8531Y380958D01*
X8476Y380874D01*
X8001Y379728D01*
X7981Y379629D01*
X7943Y379536D01*
X7701Y378319D01*
Y378219D01*
X7681Y378120D01*
Y376880D01*
X7701Y376781D01*
Y376681D01*
X7943Y375464D01*
X7981Y375371D01*
X8001Y375272D01*
X8476Y374126D01*
X8531Y374043D01*
X8570Y373950D01*
X9259Y372918D01*
X9330Y372847D01*
X9386Y372763D01*
X10264Y371886D01*
X10347Y371830D01*
X10418Y371759D01*
X11450Y371070D01*
X11542Y371031D01*
X11626Y370976D01*
X12772Y370501D01*
X12871Y370481D01*
X12964Y370443D01*
X14181Y370201D01*
X14281D01*
X14380Y370181D01*
X15620D01*
X15719Y370201D01*
X15819D01*
X17036Y370443D01*
X17129Y370481D01*
X17228Y370501D01*
X18374Y370976D01*
X18458Y371031D01*
X18550Y371070D01*
X19582Y371759D01*
X19653Y371830D01*
X19737Y371886D01*
X20614Y372763D01*
X20670Y372847D01*
X20741Y372918D01*
X21430Y373950D01*
X21468Y374043D01*
X21524Y374126D01*
X21999Y375272D01*
X22019Y375371D01*
X22057Y375464D01*
X22299Y376681D01*
Y376781D01*
X22319Y376880D01*
Y378120D01*
X22299Y378219D01*
Y378319D01*
X22057Y379536D01*
X22019Y379629D01*
X21999Y379728D01*
X21524Y380874D01*
X21468Y380958D01*
X21430Y381050D01*
X20741Y382082D01*
X20670Y382153D01*
X20614Y382237D01*
X19737Y383114D01*
X19653Y383170D01*
X19582Y383241D01*
X18550Y383930D01*
X18458Y383968D01*
X18374Y384024D01*
X17228Y384499D01*
X17129Y384519D01*
X17036Y384557D01*
X15819Y384799D01*
X15719D01*
X15620Y384819D01*
D02*
G37*
G36*
X210000Y375743D02*
X208972Y375607D01*
X208014Y375211D01*
X207192Y374580D01*
X206561Y373757D01*
X206164Y372799D01*
X206029Y371772D01*
Y368228D01*
X206164Y367201D01*
X206561Y366243D01*
X207192Y365420D01*
X208014Y364789D01*
X208972Y364393D01*
X210000Y364257D01*
X211028Y364393D01*
X211985Y364789D01*
X212808Y365420D01*
X213439Y366243D01*
X213836Y367201D01*
X213971Y368228D01*
Y371772D01*
X213836Y372799D01*
X213439Y373757D01*
X212808Y374580D01*
X211985Y375211D01*
X211028Y375607D01*
X210000Y375743D01*
D02*
G37*
G36*
X200000D02*
X198972Y375607D01*
X198014Y375211D01*
X197192Y374580D01*
X196561Y373757D01*
X196164Y372799D01*
X196029Y371772D01*
Y368228D01*
X196164Y367201D01*
X196561Y366243D01*
X197192Y365420D01*
X198014Y364789D01*
X198972Y364393D01*
X200000Y364257D01*
X201028Y364393D01*
X201986Y364789D01*
X202808Y365420D01*
X203439Y366243D01*
X203836Y367201D01*
X203971Y368228D01*
Y371772D01*
X203836Y372799D01*
X203439Y373757D01*
X202808Y374580D01*
X201986Y375211D01*
X201028Y375607D01*
X200000Y375743D01*
D02*
G37*
G36*
X190000D02*
X188972Y375607D01*
X188014Y375211D01*
X187192Y374580D01*
X186561Y373757D01*
X186164Y372799D01*
X186029Y371772D01*
Y368228D01*
X186164Y367201D01*
X186561Y366243D01*
X187192Y365420D01*
X188014Y364789D01*
X188972Y364393D01*
X190000Y364257D01*
X191028Y364393D01*
X191985Y364789D01*
X192808Y365420D01*
X193439Y366243D01*
X193836Y367201D01*
X193971Y368228D01*
Y371772D01*
X193836Y372799D01*
X193439Y373757D01*
X192808Y374580D01*
X191985Y375211D01*
X191028Y375607D01*
X190000Y375743D01*
D02*
G37*
G36*
X180000D02*
X178972Y375607D01*
X178015Y375211D01*
X177192Y374580D01*
X176561Y373757D01*
X176164Y372799D01*
X176029Y371772D01*
Y368228D01*
X176164Y367201D01*
X176561Y366243D01*
X177192Y365420D01*
X178015Y364789D01*
X178972Y364393D01*
X180000Y364257D01*
X181028Y364393D01*
X181985Y364789D01*
X182808Y365420D01*
X183439Y366243D01*
X183836Y367201D01*
X183971Y368228D01*
Y371772D01*
X183836Y372799D01*
X183439Y373757D01*
X182808Y374580D01*
X181985Y375211D01*
X181028Y375607D01*
X180000Y375743D01*
D02*
G37*
G36*
X170000D02*
X168972Y375607D01*
X168015Y375211D01*
X167192Y374580D01*
X166561Y373757D01*
X166164Y372799D01*
X166029Y371772D01*
Y368228D01*
X166164Y367201D01*
X166561Y366243D01*
X167192Y365420D01*
X168015Y364789D01*
X168972Y364393D01*
X170000Y364257D01*
X171028Y364393D01*
X171985Y364789D01*
X172808Y365420D01*
X173439Y366243D01*
X173836Y367201D01*
X173971Y368228D01*
Y371772D01*
X173836Y372799D01*
X173439Y373757D01*
X172808Y374580D01*
X171985Y375211D01*
X171028Y375607D01*
X170000Y375743D01*
D02*
G37*
G36*
X160000D02*
X158972Y375607D01*
X158015Y375211D01*
X157192Y374580D01*
X156561Y373757D01*
X156164Y372799D01*
X156029Y371772D01*
Y368228D01*
X156164Y367201D01*
X156561Y366243D01*
X157192Y365420D01*
X158015Y364789D01*
X158972Y364393D01*
X160000Y364257D01*
X161028Y364393D01*
X161986Y364789D01*
X162808Y365420D01*
X163439Y366243D01*
X163836Y367201D01*
X163971Y368228D01*
Y371772D01*
X163836Y372799D01*
X163439Y373757D01*
X162808Y374580D01*
X161986Y375211D01*
X161028Y375607D01*
X160000Y375743D01*
D02*
G37*
G36*
X150000D02*
X148972Y375607D01*
X148014Y375211D01*
X147192Y374580D01*
X146561Y373757D01*
X146164Y372799D01*
X146029Y371772D01*
Y368228D01*
X146164Y367201D01*
X146561Y366243D01*
X147192Y365420D01*
X148014Y364789D01*
X148972Y364393D01*
X150000Y364257D01*
X151028Y364393D01*
X151986Y364789D01*
X152808Y365420D01*
X153439Y366243D01*
X153836Y367201D01*
X153971Y368228D01*
Y371772D01*
X153836Y372799D01*
X153439Y373757D01*
X152808Y374580D01*
X151986Y375211D01*
X151028Y375607D01*
X150000Y375743D01*
D02*
G37*
G36*
X140000D02*
X138972Y375607D01*
X138014Y375211D01*
X137192Y374580D01*
X136561Y373757D01*
X136164Y372799D01*
X136029Y371772D01*
Y368228D01*
X136164Y367201D01*
X136561Y366243D01*
X137192Y365420D01*
X138014Y364789D01*
X138972Y364393D01*
X140000Y364257D01*
X141028Y364393D01*
X141985Y364789D01*
X142808Y365420D01*
X143439Y366243D01*
X143836Y367201D01*
X143971Y368228D01*
Y371772D01*
X143836Y372799D01*
X143439Y373757D01*
X142808Y374580D01*
X141985Y375211D01*
X141028Y375607D01*
X140000Y375743D01*
D02*
G37*
G36*
X130000D02*
X128972Y375607D01*
X128015Y375211D01*
X127192Y374580D01*
X126561Y373757D01*
X126164Y372799D01*
X126029Y371772D01*
Y368228D01*
X126164Y367201D01*
X126561Y366243D01*
X127192Y365420D01*
X128015Y364789D01*
X128972Y364393D01*
X130000Y364257D01*
X131028Y364393D01*
X131985Y364789D01*
X132808Y365420D01*
X133439Y366243D01*
X133836Y367201D01*
X133971Y368228D01*
Y371772D01*
X133836Y372799D01*
X133439Y373757D01*
X132808Y374580D01*
X131985Y375211D01*
X131028Y375607D01*
X130000Y375743D01*
D02*
G37*
G36*
X120000D02*
X118972Y375607D01*
X118015Y375211D01*
X117192Y374580D01*
X116561Y373757D01*
X116164Y372799D01*
X116029Y371772D01*
Y368228D01*
X116164Y367201D01*
X116561Y366243D01*
X117192Y365420D01*
X118015Y364789D01*
X118972Y364393D01*
X120000Y364257D01*
X121028Y364393D01*
X121985Y364789D01*
X122808Y365420D01*
X123439Y366243D01*
X123836Y367201D01*
X123971Y368228D01*
Y371772D01*
X123836Y372799D01*
X123439Y373757D01*
X122808Y374580D01*
X121985Y375211D01*
X121028Y375607D01*
X120000Y375743D01*
D02*
G37*
G36*
X110000D02*
X108972Y375607D01*
X108015Y375211D01*
X107192Y374580D01*
X106561Y373757D01*
X106164Y372799D01*
X106029Y371772D01*
Y368228D01*
X106164Y367201D01*
X106561Y366243D01*
X107192Y365420D01*
X108015Y364789D01*
X108972Y364393D01*
X110000Y364257D01*
X111028Y364393D01*
X111986Y364789D01*
X112808Y365420D01*
X113439Y366243D01*
X113836Y367201D01*
X113971Y368228D01*
Y371772D01*
X113836Y372799D01*
X113439Y373757D01*
X112808Y374580D01*
X111986Y375211D01*
X111028Y375607D01*
X110000Y375743D01*
D02*
G37*
G36*
X100000D02*
X98972Y375607D01*
X98014Y375211D01*
X97192Y374580D01*
X96561Y373757D01*
X96164Y372799D01*
X96029Y371772D01*
Y368228D01*
X96164Y367201D01*
X96561Y366243D01*
X97192Y365420D01*
X98014Y364789D01*
X98972Y364393D01*
X100000Y364257D01*
X101028Y364393D01*
X101986Y364789D01*
X102808Y365420D01*
X103439Y366243D01*
X103836Y367201D01*
X103971Y368228D01*
Y371772D01*
X103836Y372799D01*
X103439Y373757D01*
X102808Y374580D01*
X101986Y375211D01*
X101028Y375607D01*
X100000Y375743D01*
D02*
G37*
G36*
X40000Y377007D02*
X39232Y376854D01*
X38581Y376419D01*
X38146Y375768D01*
X37993Y375000D01*
X38146Y374232D01*
X38581Y373581D01*
X39232Y373146D01*
X40000Y372993D01*
X40017Y372996D01*
X54007Y359007D01*
X54462Y358702D01*
X55000Y358595D01*
X81772D01*
X82309Y358702D01*
X82765Y359007D01*
X88392Y364633D01*
X88972Y364393D01*
X90000Y364257D01*
X91028Y364393D01*
X91985Y364789D01*
X92808Y365420D01*
X93439Y366243D01*
X93836Y367201D01*
X93971Y368228D01*
Y371772D01*
X93836Y372799D01*
X93439Y373757D01*
X92808Y374580D01*
X91985Y375211D01*
X91028Y375607D01*
X90000Y375743D01*
X88972Y375607D01*
X88015Y375211D01*
X87192Y374580D01*
X86561Y373757D01*
X86164Y372799D01*
X86029Y371772D01*
Y368228D01*
X86164Y367201D01*
X86405Y366620D01*
X81190Y361405D01*
X55582D01*
X42004Y374983D01*
X42007Y375000D01*
X41854Y375768D01*
X41419Y376419D01*
X40768Y376854D01*
X40000Y377007D01*
D02*
G37*
G36*
X30000Y389368D02*
X28870Y389219D01*
X27816Y388783D01*
X26911Y388089D01*
X26217Y387184D01*
X25781Y386130D01*
X25632Y385000D01*
X25781Y383870D01*
X26217Y382816D01*
X26911Y381911D01*
X27816Y381217D01*
X28870Y380781D01*
X30000Y380632D01*
X31130Y380781D01*
X32184Y381217D01*
X33089Y381911D01*
X33326Y382220D01*
X65620D01*
X76034Y371807D01*
X76029Y371772D01*
Y368228D01*
X76164Y367201D01*
X76561Y366243D01*
X77192Y365420D01*
X78014Y364789D01*
X78972Y364393D01*
X80000Y364257D01*
X81028Y364393D01*
X81985Y364789D01*
X82808Y365420D01*
X83439Y366243D01*
X83836Y367201D01*
X83971Y368228D01*
Y371772D01*
X83836Y372799D01*
X83439Y373757D01*
X82808Y374580D01*
X81985Y375211D01*
X81028Y375607D01*
X80000Y375743D01*
X79965Y375738D01*
X73944Y381758D01*
X74136Y382220D01*
X235000D01*
X235719Y382315D01*
X236390Y382593D01*
X236965Y383034D01*
X237407Y383610D01*
X237685Y384281D01*
X237780Y385000D01*
X237685Y385719D01*
X237407Y386390D01*
X236965Y386965D01*
X236390Y387407D01*
X235719Y387685D01*
X235000Y387780D01*
X33326D01*
X33089Y388089D01*
X32184Y388783D01*
X31130Y389219D01*
X30000Y389368D01*
D02*
G37*
G36*
Y359368D02*
X28870Y359219D01*
X27816Y358783D01*
X26911Y358089D01*
X26217Y357184D01*
X25781Y356131D01*
X25632Y355000D01*
X25781Y353870D01*
X26217Y352816D01*
X26911Y351911D01*
X27816Y351217D01*
X28870Y350781D01*
X30000Y350632D01*
X31130Y350781D01*
X32184Y351217D01*
X33089Y351911D01*
X33783Y352816D01*
X34219Y353870D01*
X34368Y355000D01*
X34219Y356131D01*
X33783Y357184D01*
X33089Y358089D01*
X32184Y358783D01*
X31130Y359219D01*
X30000Y359368D01*
D02*
G37*
G36*
X12500D02*
X11370Y359219D01*
X10316Y358783D01*
X9411Y358089D01*
X8717Y357184D01*
X8281Y356131D01*
X8132Y355000D01*
X8281Y353870D01*
X8717Y352816D01*
X9411Y351911D01*
X10316Y351217D01*
X11370Y350781D01*
X12500Y350632D01*
X13631Y350781D01*
X14684Y351217D01*
X15589Y351911D01*
X16283Y352816D01*
X16719Y353870D01*
X16868Y355000D01*
X16719Y356131D01*
X16283Y357184D01*
X15589Y358089D01*
X14684Y358783D01*
X13631Y359219D01*
X12500Y359368D01*
D02*
G37*
G36*
X17043Y349543D02*
X13000D01*
Y345500D01*
X17043D01*
Y349543D01*
D02*
G37*
G36*
X12000D02*
X7957D01*
Y345500D01*
X12000D01*
Y349543D01*
D02*
G37*
G36*
X17043Y344500D02*
X13000D01*
Y340457D01*
X17043D01*
Y344500D01*
D02*
G37*
G36*
X12000D02*
X7957D01*
Y340457D01*
X12000D01*
Y344500D01*
D02*
G37*
G36*
X130000Y315743D02*
X128972Y315607D01*
X128015Y315211D01*
X127192Y314580D01*
X126561Y313757D01*
X126164Y312799D01*
X126029Y311772D01*
Y311424D01*
X125529Y311157D01*
X125318Y311298D01*
X124781Y311405D01*
X123971D01*
Y311772D01*
X123836Y312799D01*
X123439Y313757D01*
X122808Y314580D01*
X121985Y315211D01*
X121028Y315607D01*
X120000Y315743D01*
X118972Y315607D01*
X118015Y315211D01*
X117192Y314580D01*
X116561Y313757D01*
X116164Y312799D01*
X116029Y311772D01*
Y308228D01*
X116164Y307201D01*
X116561Y306243D01*
X117192Y305420D01*
X118015Y304789D01*
X118972Y304393D01*
X120000Y304257D01*
X121028Y304393D01*
X121985Y304789D01*
X122808Y305420D01*
X123439Y306243D01*
X123567Y306553D01*
X124067Y306454D01*
Y306353D01*
X124174Y305815D01*
X124479Y305360D01*
X137530Y292308D01*
X137986Y292004D01*
X138523Y291897D01*
X172888D01*
X183905Y280880D01*
X183664Y280299D01*
X183529Y279272D01*
Y275728D01*
X183664Y274701D01*
X184061Y273743D01*
X184550Y273106D01*
X184313Y272606D01*
X180687D01*
X180450Y273106D01*
X180939Y273743D01*
X181336Y274701D01*
X181471Y275728D01*
Y279272D01*
X181336Y280299D01*
X180939Y281257D01*
X180308Y282080D01*
X179485Y282711D01*
X178528Y283107D01*
X177500Y283243D01*
X176472Y283107D01*
X175514Y282711D01*
X174692Y282080D01*
X174061Y281257D01*
X173664Y280299D01*
X173529Y279272D01*
Y275728D01*
X173664Y274701D01*
X174061Y273743D01*
X174550Y273106D01*
X174313Y272606D01*
X170687D01*
X170450Y273106D01*
X170939Y273743D01*
X171336Y274701D01*
X171471Y275728D01*
Y279272D01*
X171336Y280299D01*
X170939Y281257D01*
X170308Y282080D01*
X169485Y282711D01*
X168528Y283107D01*
X167500Y283243D01*
X166472Y283107D01*
X165892Y282867D01*
X160265Y288493D01*
X159809Y288798D01*
X159272Y288905D01*
X131310D01*
X113595Y306620D01*
X113836Y307201D01*
X113971Y308228D01*
Y311772D01*
X113836Y312799D01*
X113439Y313757D01*
X112808Y314580D01*
X111986Y315211D01*
X111028Y315607D01*
X110000Y315743D01*
X108972Y315607D01*
X108015Y315211D01*
X107192Y314580D01*
X106561Y313757D01*
X106164Y312799D01*
X106029Y311772D01*
Y308228D01*
X106164Y307201D01*
X106561Y306243D01*
X107192Y305420D01*
X108015Y304789D01*
X108972Y304393D01*
X110000Y304257D01*
X111028Y304393D01*
X111608Y304633D01*
X129337Y286905D01*
X129129Y286405D01*
X28192D01*
X27654Y286298D01*
X27198Y285993D01*
X24006Y282802D01*
X23702Y282346D01*
X23595Y281808D01*
Y265000D01*
X23702Y264462D01*
X24006Y264007D01*
X31506Y256507D01*
X31962Y256202D01*
X32500Y256095D01*
X38690D01*
X43905Y250880D01*
X43664Y250299D01*
X43529Y249272D01*
Y245728D01*
X43664Y244701D01*
X44061Y243743D01*
X44692Y242920D01*
X45515Y242289D01*
X46472Y241893D01*
X47500Y241757D01*
X48528Y241893D01*
X49485Y242289D01*
X50308Y242920D01*
X50939Y243743D01*
X51336Y244701D01*
X51471Y245728D01*
Y249272D01*
X51336Y250299D01*
X50939Y251257D01*
X50308Y252080D01*
X49485Y252711D01*
X48528Y253107D01*
X47500Y253243D01*
X46472Y253107D01*
X45892Y252867D01*
X40265Y258493D01*
X39809Y258798D01*
X39272Y258905D01*
X33082D01*
X26405Y265582D01*
Y281226D01*
X28774Y283595D01*
X35788D01*
X35887Y283095D01*
X35407Y282896D01*
X34541Y282231D01*
X33875Y281364D01*
X33457Y280355D01*
X33315Y279272D01*
Y278000D01*
X37500D01*
X41685D01*
Y279272D01*
X41543Y280355D01*
X41125Y281364D01*
X40459Y282231D01*
X39593Y282896D01*
X39113Y283095D01*
X39212Y283595D01*
X46393D01*
X46472Y283107D01*
X45515Y282711D01*
X44692Y282080D01*
X44061Y281257D01*
X43664Y280299D01*
X43529Y279272D01*
Y275728D01*
X43664Y274701D01*
X44061Y273743D01*
X44692Y272920D01*
X45515Y272289D01*
X46472Y271893D01*
X46393Y271405D01*
X43929D01*
X43919Y271419D01*
X43268Y271854D01*
X42500Y272007D01*
X41732Y271854D01*
X41081Y271419D01*
X40646Y270768D01*
X40493Y270000D01*
X40646Y269232D01*
X41081Y268581D01*
X41732Y268146D01*
X42500Y267993D01*
X43268Y268146D01*
X43919Y268581D01*
X43929Y268595D01*
X101071D01*
X101081Y268581D01*
X101732Y268146D01*
X102500Y267993D01*
X103268Y268146D01*
X103919Y268581D01*
X104354Y269232D01*
X104507Y270000D01*
X104354Y270768D01*
X104005Y271291D01*
X104166Y271719D01*
X104226Y271791D01*
X111437D01*
Y283095D01*
X111437Y283209D01*
X111711Y283595D01*
X125788D01*
X125887Y283095D01*
X125407Y282896D01*
X124540Y282231D01*
X123875Y281364D01*
X123457Y280355D01*
X123315Y279272D01*
Y278000D01*
X127500D01*
X131685D01*
Y279272D01*
X131543Y280355D01*
X131125Y281364D01*
X130459Y282231D01*
X129593Y282896D01*
X129113Y283095D01*
X129212Y283595D01*
X136393D01*
X136472Y283107D01*
X135514Y282711D01*
X134692Y282080D01*
X134061Y281257D01*
X133664Y280299D01*
X133529Y279272D01*
Y275728D01*
X133664Y274701D01*
X134061Y273743D01*
X134692Y272920D01*
X135514Y272289D01*
X136472Y271893D01*
X137500Y271757D01*
X138528Y271893D01*
X139486Y272289D01*
X140308Y272920D01*
X140595Y273295D01*
X141095Y273125D01*
Y272500D01*
X141202Y271962D01*
X141507Y271507D01*
X142806Y270207D01*
X143262Y269903D01*
X143799Y269796D01*
X189375D01*
X189913Y269903D01*
X190369Y270207D01*
X191926Y271764D01*
X194941D01*
X195077Y271791D01*
X201437D01*
Y276095D01*
X236071D01*
X236081Y276081D01*
X236732Y275646D01*
X237500Y275493D01*
X238268Y275646D01*
X238919Y276081D01*
X239354Y276732D01*
X239507Y277500D01*
X239354Y278268D01*
X238919Y278919D01*
X238268Y279354D01*
X237500Y279507D01*
X236732Y279354D01*
X236081Y278919D01*
X236071Y278905D01*
X201437D01*
Y283209D01*
X193563D01*
Y274574D01*
X191798D01*
X191796Y274575D01*
X191385Y275074D01*
X191471Y275728D01*
Y279272D01*
X191336Y280299D01*
X190939Y281257D01*
X190308Y282080D01*
X189486Y282711D01*
X188528Y283107D01*
X187500Y283243D01*
X186472Y283107D01*
X185892Y282867D01*
X174463Y294295D01*
X174007Y294600D01*
X173470Y294707D01*
X139105D01*
X130045Y303767D01*
X130232Y304288D01*
X131028Y304393D01*
X131985Y304789D01*
X132808Y305420D01*
X133439Y306243D01*
X133836Y307201D01*
X133971Y308228D01*
Y311772D01*
X133836Y312799D01*
X133439Y313757D01*
X132808Y314580D01*
X131985Y315211D01*
X131028Y315607D01*
X130000Y315743D01*
D02*
G37*
G36*
X210500Y315891D02*
Y310500D01*
X214185D01*
Y311772D01*
X214043Y312855D01*
X213625Y313864D01*
X212960Y314731D01*
X212093Y315396D01*
X211083Y315814D01*
X210500Y315891D01*
D02*
G37*
G36*
X209500D02*
X208917Y315814D01*
X207907Y315396D01*
X207041Y314731D01*
X206375Y313864D01*
X205957Y312855D01*
X205815Y311772D01*
Y310500D01*
X209500D01*
Y315891D01*
D02*
G37*
G36*
X170000Y315743D02*
X168972Y315607D01*
X168015Y315211D01*
X167192Y314580D01*
X166561Y313757D01*
X166164Y312799D01*
X166029Y311772D01*
Y308228D01*
X166164Y307201D01*
X166561Y306243D01*
X167192Y305420D01*
X168015Y304789D01*
X168972Y304393D01*
X170000Y304257D01*
X171028Y304393D01*
X171985Y304789D01*
X172808Y305420D01*
X173439Y306243D01*
X173836Y307201D01*
X173971Y308228D01*
Y311772D01*
X173836Y312799D01*
X173439Y313757D01*
X172808Y314580D01*
X171985Y315211D01*
X171028Y315607D01*
X170000Y315743D01*
D02*
G37*
G36*
X160000D02*
X158972Y315607D01*
X158015Y315211D01*
X157192Y314580D01*
X156561Y313757D01*
X156164Y312799D01*
X156029Y311772D01*
Y308228D01*
X156164Y307201D01*
X156561Y306243D01*
X157192Y305420D01*
X158015Y304789D01*
X158972Y304393D01*
X160000Y304257D01*
X161028Y304393D01*
X161986Y304789D01*
X162808Y305420D01*
X163439Y306243D01*
X163836Y307201D01*
X163971Y308228D01*
Y311772D01*
X163836Y312799D01*
X163439Y313757D01*
X162808Y314580D01*
X161986Y315211D01*
X161028Y315607D01*
X160000Y315743D01*
D02*
G37*
G36*
X150000D02*
X148972Y315607D01*
X148014Y315211D01*
X147192Y314580D01*
X146561Y313757D01*
X146164Y312799D01*
X146029Y311772D01*
Y308228D01*
X146164Y307201D01*
X146561Y306243D01*
X147192Y305420D01*
X148014Y304789D01*
X148972Y304393D01*
X150000Y304257D01*
X151028Y304393D01*
X151986Y304789D01*
X152808Y305420D01*
X153439Y306243D01*
X153836Y307201D01*
X153971Y308228D01*
Y311772D01*
X153836Y312799D01*
X153439Y313757D01*
X152808Y314580D01*
X151986Y315211D01*
X151028Y315607D01*
X150000Y315743D01*
D02*
G37*
G36*
X140000D02*
X138972Y315607D01*
X138014Y315211D01*
X137192Y314580D01*
X136561Y313757D01*
X136164Y312799D01*
X136029Y311772D01*
Y308228D01*
X136164Y307201D01*
X136561Y306243D01*
X137192Y305420D01*
X138014Y304789D01*
X138972Y304393D01*
X140000Y304257D01*
X141028Y304393D01*
X141985Y304789D01*
X142808Y305420D01*
X143439Y306243D01*
X143836Y307201D01*
X143971Y308228D01*
Y311772D01*
X143836Y312799D01*
X143439Y313757D01*
X142808Y314580D01*
X141985Y315211D01*
X141028Y315607D01*
X140000Y315743D01*
D02*
G37*
G36*
X100000D02*
X98972Y315607D01*
X98014Y315211D01*
X97192Y314580D01*
X96561Y313757D01*
X96164Y312799D01*
X96029Y311772D01*
Y308228D01*
X96164Y307201D01*
X96561Y306243D01*
X97192Y305420D01*
X98014Y304789D01*
X98972Y304393D01*
X100000Y304257D01*
X101028Y304393D01*
X101986Y304789D01*
X102808Y305420D01*
X103439Y306243D01*
X103836Y307201D01*
X103971Y308228D01*
Y311772D01*
X103836Y312799D01*
X103439Y313757D01*
X102808Y314580D01*
X101986Y315211D01*
X101028Y315607D01*
X100000Y315743D01*
D02*
G37*
G36*
X90000D02*
X88972Y315607D01*
X88015Y315211D01*
X87192Y314580D01*
X86561Y313757D01*
X86164Y312799D01*
X86029Y311772D01*
Y308228D01*
X86164Y307201D01*
X86561Y306243D01*
X87192Y305420D01*
X88015Y304789D01*
X88972Y304393D01*
X90000Y304257D01*
X91028Y304393D01*
X91985Y304789D01*
X92808Y305420D01*
X93439Y306243D01*
X93836Y307201D01*
X93971Y308228D01*
Y311772D01*
X93836Y312799D01*
X93439Y313757D01*
X92808Y314580D01*
X91985Y315211D01*
X91028Y315607D01*
X90000Y315743D01*
D02*
G37*
G36*
X16831Y326831D02*
X8169D01*
Y318169D01*
X12900D01*
X23034Y308034D01*
X23610Y307593D01*
X24281Y307315D01*
X25000Y307220D01*
X76162D01*
X76164Y307201D01*
X76561Y306243D01*
X77192Y305420D01*
X78014Y304789D01*
X78972Y304393D01*
X80000Y304257D01*
X81028Y304393D01*
X81985Y304789D01*
X82808Y305420D01*
X83439Y306243D01*
X83836Y307201D01*
X83971Y308228D01*
Y311772D01*
X83836Y312799D01*
X83439Y313757D01*
X82808Y314580D01*
X81985Y315211D01*
X81028Y315607D01*
X80000Y315743D01*
X78972Y315607D01*
X78014Y315211D01*
X77192Y314580D01*
X76561Y313757D01*
X76164Y312799D01*
X76162Y312780D01*
X26151D01*
X16831Y322100D01*
Y326831D01*
D02*
G37*
G36*
X200000Y315743D02*
X198972Y315607D01*
X198014Y315211D01*
X197192Y314580D01*
X196561Y313757D01*
X196164Y312799D01*
X196029Y311772D01*
Y308228D01*
X196164Y307201D01*
X196561Y306243D01*
X197192Y305420D01*
X198014Y304789D01*
X198972Y304393D01*
X200000Y304257D01*
X201028Y304393D01*
X201608Y304633D01*
X202642Y303599D01*
X202451Y303137D01*
X197078D01*
X193595Y306620D01*
X193836Y307201D01*
X193971Y308228D01*
Y311772D01*
X193836Y312799D01*
X193439Y313757D01*
X192808Y314580D01*
X191985Y315211D01*
X191028Y315607D01*
X190000Y315743D01*
X188972Y315607D01*
X188014Y315211D01*
X187192Y314580D01*
X186561Y313757D01*
X186164Y312799D01*
X186029Y311772D01*
Y308228D01*
X186164Y307201D01*
X186561Y306243D01*
X187192Y305420D01*
X188014Y304789D01*
X188972Y304393D01*
X190000Y304257D01*
X191028Y304393D01*
X191608Y304633D01*
X194611Y301631D01*
X194419Y301169D01*
X189047D01*
X183595Y306620D01*
X183836Y307201D01*
X183971Y308228D01*
Y311772D01*
X183836Y312799D01*
X183439Y313757D01*
X182808Y314580D01*
X181985Y315211D01*
X181028Y315607D01*
X180000Y315743D01*
X178972Y315607D01*
X178015Y315211D01*
X177192Y314580D01*
X176561Y313757D01*
X176164Y312799D01*
X176029Y311772D01*
Y308228D01*
X176164Y307201D01*
X176561Y306243D01*
X177192Y305420D01*
X178015Y304789D01*
X178972Y304393D01*
X180000Y304257D01*
X181028Y304393D01*
X181608Y304633D01*
X187471Y298770D01*
X187927Y298466D01*
X188465Y298359D01*
X256375D01*
X256913Y298466D01*
X257369Y298770D01*
X258446Y299847D01*
X258465Y299843D01*
X259233Y299996D01*
X259884Y300431D01*
X260319Y301082D01*
X260472Y301850D01*
X260319Y302619D01*
X259884Y303270D01*
X259489Y303533D01*
X259307Y304161D01*
X259354Y304232D01*
X259507Y305000D01*
X259354Y305768D01*
X258919Y306419D01*
X258268Y306854D01*
X257500Y307007D01*
X257326Y306973D01*
X256973Y307326D01*
X257007Y307500D01*
X256854Y308268D01*
X256419Y308919D01*
X255768Y309354D01*
X255000Y309507D01*
X254232Y309354D01*
X253581Y308919D01*
X253146Y308268D01*
X252993Y307500D01*
X252996Y307483D01*
X250619Y305106D01*
X213465D01*
X213218Y305606D01*
X213625Y306136D01*
X214043Y307145D01*
X214185Y308228D01*
Y309500D01*
X210000D01*
X205815D01*
Y308228D01*
X205957Y307145D01*
X206375Y306136D01*
X206782Y305606D01*
X206535Y305106D01*
X205110D01*
X203595Y306620D01*
X203836Y307201D01*
X203971Y308228D01*
Y311772D01*
X203836Y312799D01*
X203439Y313757D01*
X202808Y314580D01*
X201986Y315211D01*
X201028Y315607D01*
X200000Y315743D01*
D02*
G37*
G36*
X131685Y277000D02*
X128000D01*
Y271609D01*
X128583Y271686D01*
X129593Y272104D01*
X130459Y272769D01*
X131125Y273636D01*
X131543Y274645D01*
X131685Y275728D01*
Y277000D01*
D02*
G37*
G36*
X41685D02*
X38000D01*
Y271609D01*
X38583Y271686D01*
X39593Y272104D01*
X40459Y272769D01*
X41125Y273636D01*
X41543Y274645D01*
X41685Y275728D01*
Y277000D01*
D02*
G37*
G36*
X127000D02*
X123315D01*
Y275728D01*
X123457Y274645D01*
X123875Y273636D01*
X124540Y272769D01*
X125407Y272104D01*
X126417Y271686D01*
X127000Y271609D01*
Y277000D01*
D02*
G37*
G36*
X37000D02*
X33315D01*
Y275728D01*
X33457Y274645D01*
X33875Y273636D01*
X34541Y272769D01*
X35407Y272104D01*
X36417Y271686D01*
X37000Y271609D01*
Y277000D01*
D02*
G37*
G36*
X230500Y271648D02*
Y268374D01*
X234116D01*
X234053Y268854D01*
X233675Y269768D01*
X233072Y270553D01*
X232288Y271155D01*
X231374Y271533D01*
X230500Y271648D01*
D02*
G37*
G36*
X229500Y271648D02*
X228626Y271533D01*
X227712Y271155D01*
X226928Y270553D01*
X226325Y269768D01*
X225947Y268854D01*
X225884Y268374D01*
X229500D01*
Y271648D01*
D02*
G37*
G36*
Y267374D02*
X225884D01*
X225947Y266894D01*
X226325Y265980D01*
X226928Y265195D01*
X227712Y264593D01*
X228626Y264215D01*
X229500Y264100D01*
Y267374D01*
D02*
G37*
G36*
X234116D02*
X230500D01*
Y264100D01*
X231374Y264215D01*
X232288Y264593D01*
X233072Y265195D01*
X233675Y265980D01*
X234053Y266894D01*
X234116Y267374D01*
D02*
G37*
G36*
X92500Y259507D02*
X91732Y259354D01*
X91081Y258919D01*
X91071Y258905D01*
X48929D01*
X48919Y258919D01*
X48268Y259354D01*
X47500Y259507D01*
X46732Y259354D01*
X46081Y258919D01*
X45646Y258268D01*
X45493Y257500D01*
X45646Y256732D01*
X46081Y256081D01*
X46732Y255646D01*
X47500Y255493D01*
X48268Y255646D01*
X48919Y256081D01*
X48929Y256095D01*
X91071D01*
X91081Y256081D01*
X91732Y255646D01*
X92500Y255493D01*
X93268Y255646D01*
X93919Y256081D01*
X94354Y256732D01*
X94507Y257500D01*
X94354Y258268D01*
X93919Y258919D01*
X93268Y259354D01*
X92500Y259507D01*
D02*
G37*
G36*
X8000Y260428D02*
Y258000D01*
X10428D01*
X10392Y258275D01*
X10093Y258997D01*
X9617Y259617D01*
X8997Y260093D01*
X8275Y260392D01*
X8000Y260428D01*
D02*
G37*
G36*
X7000D02*
X6725Y260392D01*
X6003Y260093D01*
X5383Y259617D01*
X4907Y258997D01*
X4608Y258275D01*
X4572Y258000D01*
X7000D01*
Y260428D01*
D02*
G37*
G36*
X10428Y257000D02*
X8000D01*
Y254572D01*
X8275Y254608D01*
X8997Y254907D01*
X9617Y255383D01*
X10093Y256003D01*
X10392Y256725D01*
X10428Y257000D01*
D02*
G37*
G36*
X7000D02*
X4572D01*
X4608Y256725D01*
X4907Y256003D01*
X5383Y255383D01*
X6003Y254907D01*
X6725Y254608D01*
X7000Y254572D01*
Y257000D01*
D02*
G37*
G36*
X154624Y254500D02*
X153000D01*
Y252876D01*
X153351Y252945D01*
X154072Y253428D01*
X154554Y254149D01*
X154624Y254500D01*
D02*
G37*
G36*
X152000D02*
X150376D01*
X150445Y254149D01*
X150927Y253428D01*
X151649Y252945D01*
X152000Y252876D01*
Y254500D01*
D02*
G37*
G36*
X187500Y253243D02*
X186472Y253107D01*
X185514Y252711D01*
X184692Y252080D01*
X184061Y251257D01*
X183664Y250299D01*
X183529Y249272D01*
Y245728D01*
X183664Y244701D01*
X184061Y243743D01*
X184692Y242920D01*
X185514Y242289D01*
X186472Y241893D01*
X187500Y241757D01*
X188528Y241893D01*
X189486Y242289D01*
X190308Y242920D01*
X190939Y243743D01*
X191336Y244701D01*
X191471Y245728D01*
Y249272D01*
X191336Y250299D01*
X190939Y251257D01*
X190308Y252080D01*
X189486Y252711D01*
X188528Y253107D01*
X187500Y253243D01*
D02*
G37*
G36*
X177500D02*
X176472Y253107D01*
X175514Y252711D01*
X174692Y252080D01*
X174061Y251257D01*
X173664Y250299D01*
X173529Y249272D01*
Y245728D01*
X173664Y244701D01*
X174061Y243743D01*
X174692Y242920D01*
X175514Y242289D01*
X176472Y241893D01*
X177500Y241757D01*
X178528Y241893D01*
X179485Y242289D01*
X180308Y242920D01*
X180939Y243743D01*
X181336Y244701D01*
X181471Y245728D01*
Y249272D01*
X181336Y250299D01*
X180939Y251257D01*
X180308Y252080D01*
X179485Y252711D01*
X178528Y253107D01*
X177500Y253243D01*
D02*
G37*
G36*
X167500D02*
X166472Y253107D01*
X165515Y252711D01*
X164692Y252080D01*
X164061Y251257D01*
X163664Y250299D01*
X163529Y249272D01*
Y245728D01*
X163664Y244701D01*
X164061Y243743D01*
X164692Y242920D01*
X165515Y242289D01*
X166472Y241893D01*
X167500Y241757D01*
X168528Y241893D01*
X169485Y242289D01*
X170308Y242920D01*
X170939Y243743D01*
X171336Y244701D01*
X171471Y245728D01*
Y249272D01*
X171336Y250299D01*
X170939Y251257D01*
X170308Y252080D01*
X169485Y252711D01*
X168528Y253107D01*
X167500Y253243D01*
D02*
G37*
G36*
X157500D02*
X156472Y253107D01*
X155515Y252711D01*
X154692Y252080D01*
X154061Y251257D01*
X153664Y250299D01*
X153529Y249272D01*
Y245728D01*
X153664Y244701D01*
X154061Y243743D01*
X154692Y242920D01*
X155515Y242289D01*
X156472Y241893D01*
X157500Y241757D01*
X158528Y241893D01*
X159485Y242289D01*
X160308Y242920D01*
X160939Y243743D01*
X161336Y244701D01*
X161471Y245728D01*
Y249272D01*
X161336Y250299D01*
X160939Y251257D01*
X160308Y252080D01*
X159485Y252711D01*
X158528Y253107D01*
X157500Y253243D01*
D02*
G37*
G36*
X37500D02*
X36472Y253107D01*
X35515Y252711D01*
X34692Y252080D01*
X34061Y251257D01*
X33664Y250299D01*
X33529Y249272D01*
Y245728D01*
X33664Y244701D01*
X34061Y243743D01*
X34692Y242920D01*
X35515Y242289D01*
X36472Y241893D01*
X37500Y241757D01*
X38528Y241893D01*
X39485Y242289D01*
X40308Y242920D01*
X40939Y243743D01*
X41336Y244701D01*
X41471Y245728D01*
Y249272D01*
X41336Y250299D01*
X40939Y251257D01*
X40308Y252080D01*
X39485Y252711D01*
X38528Y253107D01*
X37500Y253243D01*
D02*
G37*
G36*
X37017Y229500D02*
X33000D01*
Y225483D01*
X33686Y225574D01*
X34791Y226031D01*
X35740Y226760D01*
X36469Y227709D01*
X36926Y228814D01*
X37017Y229500D01*
D02*
G37*
G36*
X32000D02*
X27983D01*
X28074Y228814D01*
X28531Y227709D01*
X29260Y226760D01*
X30209Y226031D01*
X31314Y225574D01*
X32000Y225483D01*
Y229500D01*
D02*
G37*
G36*
X112500Y223574D02*
X111575Y223452D01*
X110713Y223095D01*
X109973Y222527D01*
X109405Y221787D01*
X109048Y220925D01*
X108926Y220000D01*
X109048Y219075D01*
X109405Y218213D01*
X109973Y217473D01*
X110713Y216905D01*
X111575Y216548D01*
X112500Y216426D01*
X113425Y216548D01*
X113835Y216718D01*
X114218Y216335D01*
X114048Y215925D01*
X113926Y215000D01*
X114048Y214075D01*
X114123Y213893D01*
X113770Y213539D01*
X113480Y213659D01*
X113000Y213722D01*
Y210500D01*
X116223D01*
X116159Y210981D01*
X116039Y211270D01*
X116393Y211623D01*
X116575Y211548D01*
X117500Y211426D01*
X118425Y211548D01*
X119287Y211905D01*
X120027Y212473D01*
X120595Y213213D01*
X120952Y214075D01*
X121074Y215000D01*
X120952Y215925D01*
X120595Y216787D01*
X120027Y217527D01*
X119287Y218095D01*
X118425Y218452D01*
X117500Y218574D01*
X116575Y218452D01*
X116165Y218282D01*
X115782Y218665D01*
X115952Y219075D01*
X116074Y220000D01*
X115952Y220925D01*
X115595Y221787D01*
X115027Y222527D01*
X114287Y223095D01*
X113425Y223452D01*
X112500Y223574D01*
D02*
G37*
G36*
X87500D02*
X86575Y223452D01*
X85713Y223095D01*
X84973Y222527D01*
X84405Y221787D01*
X84048Y220925D01*
X83926Y220000D01*
X84048Y219075D01*
X84405Y218213D01*
X84973Y217473D01*
X85713Y216905D01*
X86575Y216548D01*
X87500Y216426D01*
X88425Y216548D01*
X88835Y216718D01*
X89218Y216335D01*
X89048Y215925D01*
X88926Y215000D01*
X89048Y214075D01*
X89123Y213893D01*
X88770Y213539D01*
X88481Y213659D01*
X88000Y213722D01*
Y210500D01*
X91223D01*
X91159Y210981D01*
X91039Y211270D01*
X91393Y211623D01*
X91575Y211548D01*
X92500Y211426D01*
X93425Y211548D01*
X94287Y211905D01*
X95027Y212473D01*
X95595Y213213D01*
X95952Y214075D01*
X96074Y215000D01*
X95952Y215925D01*
X95595Y216787D01*
X95027Y217527D01*
X94287Y218095D01*
X93425Y218452D01*
X92500Y218574D01*
X91575Y218452D01*
X91165Y218282D01*
X90782Y218665D01*
X90952Y219075D01*
X91074Y220000D01*
X90952Y220925D01*
X90595Y221787D01*
X90027Y222527D01*
X89287Y223095D01*
X88425Y223452D01*
X87500Y223574D01*
D02*
G37*
G36*
X112000Y213722D02*
X111520Y213659D01*
X110606Y213281D01*
X109821Y212679D01*
X109219Y211894D01*
X108841Y210981D01*
X108777Y210500D01*
X112000D01*
Y213722D01*
D02*
G37*
G36*
X87000D02*
X86519Y213659D01*
X85606Y213281D01*
X84821Y212679D01*
X84219Y211894D01*
X83841Y210981D01*
X83777Y210500D01*
X87000D01*
Y213722D01*
D02*
G37*
G36*
X62000D02*
X61519Y213659D01*
X60606Y213281D01*
X59821Y212679D01*
X59219Y211894D01*
X58841Y210981D01*
X58777Y210500D01*
X62000D01*
Y213722D01*
D02*
G37*
G36*
X37000D02*
X36520Y213659D01*
X35606Y213281D01*
X34821Y212679D01*
X34219Y211894D01*
X33841Y210981D01*
X33777Y210500D01*
X37000D01*
Y213722D01*
D02*
G37*
G36*
X116223Y209500D02*
X113000D01*
Y206277D01*
X113480Y206341D01*
X114394Y206719D01*
X115179Y207321D01*
X115781Y208106D01*
X116159Y209019D01*
X116223Y209500D01*
D02*
G37*
G36*
X91223D02*
X88000D01*
Y206277D01*
X88481Y206341D01*
X89394Y206719D01*
X90179Y207321D01*
X90781Y208106D01*
X91159Y209019D01*
X91223Y209500D01*
D02*
G37*
G36*
X66223D02*
X63000D01*
Y206277D01*
X63481Y206341D01*
X64394Y206719D01*
X65179Y207321D01*
X65781Y208106D01*
X66159Y209019D01*
X66223Y209500D01*
D02*
G37*
G36*
X41223D02*
X38000D01*
Y206277D01*
X38480Y206341D01*
X39394Y206719D01*
X40179Y207321D01*
X40781Y208106D01*
X41159Y209019D01*
X41223Y209500D01*
D02*
G37*
G36*
X112000D02*
X108777D01*
X108841Y209019D01*
X109219Y208106D01*
X109821Y207321D01*
X110606Y206719D01*
X111520Y206341D01*
X112000Y206277D01*
Y209500D01*
D02*
G37*
G36*
X87000D02*
X83777D01*
X83841Y209019D01*
X84219Y208106D01*
X84821Y207321D01*
X85606Y206719D01*
X86519Y206341D01*
X87000Y206277D01*
Y209500D01*
D02*
G37*
G36*
X62000D02*
X58777D01*
X58841Y209019D01*
X59219Y208106D01*
X59821Y207321D01*
X60606Y206719D01*
X61519Y206341D01*
X62000Y206277D01*
Y209500D01*
D02*
G37*
G36*
X37000D02*
X33777D01*
X33841Y209019D01*
X34219Y208106D01*
X34821Y207321D01*
X35606Y206719D01*
X36520Y206341D01*
X37000Y206277D01*
Y209500D01*
D02*
G37*
G36*
X153000Y202017D02*
Y198000D01*
X157017D01*
X156926Y198686D01*
X156469Y199791D01*
X155740Y200740D01*
X154791Y201469D01*
X153686Y201926D01*
X153000Y202017D01*
D02*
G37*
G36*
X152000D02*
X151314Y201926D01*
X150209Y201469D01*
X149260Y200740D01*
X148531Y199791D01*
X148074Y198686D01*
X147983Y198000D01*
X152000D01*
Y202017D01*
D02*
G37*
G36*
X138000Y202368D02*
X136870Y202219D01*
X135816Y201783D01*
X134911Y201089D01*
X134217Y200184D01*
X133781Y199130D01*
X133632Y198000D01*
X133781Y196870D01*
X134217Y195816D01*
X134911Y194911D01*
X135816Y194217D01*
X136870Y193781D01*
X138000Y193632D01*
X139130Y193781D01*
X140184Y194217D01*
X141089Y194911D01*
X141783Y195816D01*
X142219Y196870D01*
X142368Y198000D01*
X142219Y199130D01*
X141783Y200184D01*
X141089Y201089D01*
X140184Y201783D01*
X139130Y202219D01*
X138000Y202368D01*
D02*
G37*
G36*
X122500Y201868D02*
X121370Y201719D01*
X120316Y201283D01*
X119411Y200589D01*
X118717Y199684D01*
X118281Y198630D01*
X118132Y197500D01*
X118281Y196370D01*
X118717Y195316D01*
X119411Y194411D01*
X120316Y193717D01*
X121370Y193281D01*
X122500Y193132D01*
X123630Y193281D01*
X124684Y193717D01*
X125589Y194411D01*
X126283Y195316D01*
X126719Y196370D01*
X126868Y197500D01*
X126719Y198630D01*
X126283Y199684D01*
X125589Y200589D01*
X124684Y201283D01*
X123630Y201719D01*
X122500Y201868D01*
D02*
G37*
G36*
X107500D02*
X106369Y201719D01*
X105316Y201283D01*
X104411Y200589D01*
X103717Y199684D01*
X103281Y198630D01*
X103132Y197500D01*
X103281Y196370D01*
X103717Y195316D01*
X104411Y194411D01*
X105316Y193717D01*
X106369Y193281D01*
X107500Y193132D01*
X108631Y193281D01*
X109684Y193717D01*
X110589Y194411D01*
X111283Y195316D01*
X111719Y196370D01*
X111868Y197500D01*
X111719Y198630D01*
X111283Y199684D01*
X110589Y200589D01*
X109684Y201283D01*
X108631Y201719D01*
X107500Y201868D01*
D02*
G37*
G36*
X93000Y197017D02*
Y193000D01*
X97017D01*
X96926Y193686D01*
X96469Y194791D01*
X95740Y195740D01*
X94791Y196469D01*
X93686Y196926D01*
X93000Y197017D01*
D02*
G37*
G36*
X92000D02*
X91314Y196926D01*
X90209Y196469D01*
X89260Y195740D01*
X88531Y194791D01*
X88074Y193686D01*
X87983Y193000D01*
X92000D01*
Y197017D01*
D02*
G37*
G36*
X172017Y197000D02*
X168000D01*
Y192983D01*
X168686Y193074D01*
X169791Y193531D01*
X170740Y194260D01*
X171469Y195209D01*
X171926Y196314D01*
X172017Y197000D01*
D02*
G37*
G36*
X157017D02*
X153000D01*
Y192983D01*
X153686Y193074D01*
X154791Y193531D01*
X155740Y194260D01*
X156469Y195209D01*
X156926Y196314D01*
X157017Y197000D01*
D02*
G37*
G36*
X167000D02*
X162983D01*
X163074Y196314D01*
X163531Y195209D01*
X164260Y194260D01*
X165209Y193531D01*
X166314Y193074D01*
X167000Y192983D01*
Y197000D01*
D02*
G37*
G36*
X152000D02*
X147983D01*
X148074Y196314D01*
X148531Y195209D01*
X149260Y194260D01*
X150209Y193531D01*
X151314Y193074D01*
X152000Y192983D01*
Y197000D01*
D02*
G37*
G36*
X20428Y178024D02*
X18000D01*
Y175595D01*
X18275Y175631D01*
X18997Y175931D01*
X19617Y176407D01*
X20093Y177027D01*
X20392Y177749D01*
X20428Y178024D01*
D02*
G37*
G36*
X17000D02*
X14572D01*
X14608Y177749D01*
X14907Y177027D01*
X15383Y176407D01*
X16003Y175931D01*
X16725Y175631D01*
X17000Y175595D01*
Y178024D01*
D02*
G37*
G36*
X258000Y169624D02*
Y168000D01*
X259624D01*
X259555Y168351D01*
X259072Y169072D01*
X258351Y169554D01*
X258000Y169624D01*
D02*
G37*
G36*
X257000D02*
X256649Y169554D01*
X255927Y169072D01*
X255445Y168351D01*
X255376Y168000D01*
X257000D01*
Y169624D01*
D02*
G37*
G36*
X259624Y167000D02*
X258000D01*
Y165376D01*
X258351Y165445D01*
X259072Y165928D01*
X259555Y166649D01*
X259624Y167000D01*
D02*
G37*
G36*
X257000D02*
X255376D01*
X255445Y166649D01*
X255927Y165928D01*
X256649Y165445D01*
X257000Y165376D01*
Y167000D01*
D02*
G37*
G36*
X212500Y171868D02*
X211369Y171719D01*
X210316Y171283D01*
X209411Y170589D01*
X208717Y169684D01*
X208281Y168631D01*
X208132Y167500D01*
X208281Y166369D01*
X208717Y165316D01*
X209411Y164411D01*
X210316Y163717D01*
X211369Y163281D01*
X212500Y163132D01*
X213631Y163281D01*
X214684Y163717D01*
X215589Y164411D01*
X216283Y165316D01*
X216719Y166369D01*
X216868Y167500D01*
X216719Y168631D01*
X216283Y169684D01*
X215589Y170589D01*
X214684Y171283D01*
X213631Y171719D01*
X212500Y171868D01*
D02*
G37*
G36*
X17500D02*
X16369Y171719D01*
X15316Y171283D01*
X14411Y170589D01*
X13717Y169684D01*
X13281Y168631D01*
X13132Y167500D01*
X13281Y166369D01*
X13717Y165316D01*
X14411Y164411D01*
X15316Y163717D01*
X16369Y163281D01*
X17500Y163132D01*
X18631Y163281D01*
X19684Y163717D01*
X20589Y164411D01*
X21283Y165316D01*
X21719Y166369D01*
X21868Y167500D01*
X21719Y168631D01*
X21283Y169684D01*
X20589Y170589D01*
X19684Y171283D01*
X18631Y171719D01*
X17500Y171868D01*
D02*
G37*
G36*
X205921Y151650D02*
X200500D01*
Y148000D01*
X205921D01*
Y151650D01*
D02*
G37*
G36*
X199500D02*
X194079D01*
Y148000D01*
X199500D01*
Y151650D01*
D02*
G37*
G36*
X231772Y151471D02*
X228228D01*
X227201Y151336D01*
X226243Y150939D01*
X225420Y150308D01*
X224789Y149486D01*
X224393Y148528D01*
X224257Y147500D01*
X224393Y146472D01*
X224789Y145515D01*
X225420Y144692D01*
X226243Y144061D01*
X227201Y143664D01*
X228228Y143529D01*
X231772D01*
X232799Y143664D01*
X233757Y144061D01*
X234580Y144692D01*
X235211Y145515D01*
X235607Y146472D01*
X235743Y147500D01*
X235607Y148528D01*
X235211Y149486D01*
X234580Y150308D01*
X233757Y150939D01*
X232799Y151336D01*
X231772Y151471D01*
D02*
G37*
G36*
X68158Y139116D02*
Y135500D01*
X71432D01*
X71317Y136374D01*
X70938Y137288D01*
X70336Y138072D01*
X69552Y138674D01*
X68638Y139053D01*
X68158Y139116D01*
D02*
G37*
G36*
X67158D02*
X66677Y139053D01*
X65763Y138674D01*
X64979Y138072D01*
X64377Y137288D01*
X63998Y136374D01*
X63883Y135500D01*
X67158D01*
Y139116D01*
D02*
G37*
G36*
X71432Y134500D02*
X68158D01*
Y130884D01*
X68638Y130947D01*
X69552Y131325D01*
X70336Y131928D01*
X70938Y132712D01*
X71317Y133626D01*
X71432Y134500D01*
D02*
G37*
G36*
X67158D02*
X63883D01*
X63998Y133626D01*
X64377Y132712D01*
X64979Y131928D01*
X65763Y131325D01*
X66677Y130947D01*
X67158Y130884D01*
Y134500D01*
D02*
G37*
G36*
X15315Y139765D02*
X14082Y139603D01*
X12932Y139127D01*
X11946Y138370D01*
X11188Y137383D01*
X10712Y136233D01*
X10550Y135000D01*
X10712Y133767D01*
X11188Y132617D01*
X11946Y131631D01*
X12932Y130873D01*
X14082Y130397D01*
X15315Y130235D01*
X16548Y130397D01*
X17698Y130873D01*
X18685Y131631D01*
X19442Y132617D01*
X19918Y133767D01*
X20080Y135000D01*
X19918Y136233D01*
X19442Y137383D01*
X18685Y138370D01*
X17698Y139127D01*
X16548Y139603D01*
X15315Y139765D01*
D02*
G37*
G36*
X134272Y91685D02*
X133000D01*
Y88000D01*
X138391D01*
X138314Y88583D01*
X137896Y89593D01*
X137231Y90460D01*
X136364Y91125D01*
X135355Y91543D01*
X134272Y91685D01*
D02*
G37*
G36*
X132000D02*
X130728D01*
X129645Y91543D01*
X128636Y91125D01*
X127769Y90460D01*
X127104Y89593D01*
X126686Y88583D01*
X126609Y88000D01*
X132000D01*
Y91685D01*
D02*
G37*
G36*
X164272Y91471D02*
X160728D01*
X159701Y91336D01*
X158743Y90939D01*
X157920Y90308D01*
X157289Y89486D01*
X156893Y88528D01*
X156757Y87500D01*
X156893Y86472D01*
X157289Y85514D01*
X157920Y84692D01*
X158743Y84061D01*
X159701Y83664D01*
X160728Y83529D01*
X164272D01*
X165299Y83664D01*
X166257Y84061D01*
X167080Y84692D01*
X167711Y85514D01*
X168107Y86472D01*
X168243Y87500D01*
X168107Y88528D01*
X167711Y89486D01*
X167080Y90308D01*
X166257Y90939D01*
X165299Y91336D01*
X164272Y91471D01*
D02*
G37*
G36*
X138391Y87000D02*
X133000D01*
Y83315D01*
X134272D01*
X135355Y83457D01*
X136364Y83875D01*
X137231Y84540D01*
X137896Y85407D01*
X138314Y86417D01*
X138391Y87000D01*
D02*
G37*
G36*
X132000D02*
X126609D01*
X126686Y86417D01*
X127104Y85407D01*
X127769Y84540D01*
X128636Y83875D01*
X129645Y83457D01*
X130728Y83315D01*
X132000D01*
Y87000D01*
D02*
G37*
G36*
X39724Y139724D02*
X30276D01*
Y130276D01*
X32220D01*
Y122167D01*
X6035Y95981D01*
X5593Y95406D01*
X5315Y94735D01*
X5220Y94016D01*
Y70790D01*
X5315Y70071D01*
X5593Y69401D01*
X6035Y68825D01*
X9220Y65639D01*
Y46322D01*
X8630Y45869D01*
X7873Y44883D01*
X7397Y43733D01*
X7235Y42500D01*
X7397Y41267D01*
X7873Y40117D01*
X8630Y39130D01*
X9617Y38373D01*
X10767Y37897D01*
X12000Y37735D01*
X12737Y37832D01*
X21720Y28849D01*
Y17224D01*
X19776D01*
Y7776D01*
X29224D01*
Y17224D01*
X27280D01*
Y30000D01*
X27185Y30719D01*
X26907Y31390D01*
X26465Y31966D01*
X16668Y41763D01*
X16765Y42500D01*
X16603Y43733D01*
X16127Y44883D01*
X15370Y45869D01*
X14780Y46322D01*
Y66790D01*
X14685Y67510D01*
X14407Y68180D01*
X13965Y68756D01*
X10780Y71942D01*
Y83357D01*
X11280Y83498D01*
X11946Y82630D01*
X12932Y81873D01*
X14082Y81397D01*
X15315Y81235D01*
X16548Y81397D01*
X17698Y81873D01*
X18685Y82630D01*
X19442Y83617D01*
X19918Y84767D01*
X20080Y86000D01*
X19918Y87233D01*
X19442Y88383D01*
X18685Y89369D01*
X17698Y90127D01*
X16548Y90603D01*
X15315Y90765D01*
X14082Y90603D01*
X12932Y90127D01*
X11946Y89369D01*
X11280Y88502D01*
X10780Y88643D01*
Y92864D01*
X36966Y119050D01*
X37407Y119626D01*
X37685Y120296D01*
X37780Y121016D01*
Y130276D01*
X39724D01*
Y139724D01*
D02*
G37*
G36*
X160500Y79624D02*
Y78000D01*
X162124D01*
X162055Y78351D01*
X161573Y79072D01*
X160851Y79554D01*
X160500Y79624D01*
D02*
G37*
G36*
X159500D02*
X159149Y79554D01*
X158428Y79072D01*
X157946Y78351D01*
X157876Y78000D01*
X159500D01*
Y79624D01*
D02*
G37*
G36*
X123000D02*
Y78000D01*
X124624D01*
X124555Y78351D01*
X124073Y79072D01*
X123351Y79554D01*
X123000Y79624D01*
D02*
G37*
G36*
X122000D02*
X121649Y79554D01*
X120928Y79072D01*
X120446Y78351D01*
X120376Y78000D01*
X122000D01*
Y79624D01*
D02*
G37*
G36*
X162124Y77000D02*
X160500D01*
Y75376D01*
X160851Y75445D01*
X161573Y75928D01*
X162055Y76649D01*
X162124Y77000D01*
D02*
G37*
G36*
X159500D02*
X157876D01*
X157946Y76649D01*
X158428Y75928D01*
X159149Y75445D01*
X159500Y75376D01*
Y77000D01*
D02*
G37*
G36*
X124624D02*
X123000D01*
Y75376D01*
X123351Y75445D01*
X124073Y75928D01*
X124555Y76649D01*
X124624Y77000D01*
D02*
G37*
G36*
X122000D02*
X120376D01*
X120446Y76649D01*
X120928Y75928D01*
X121649Y75445D01*
X122000Y75376D01*
Y77000D01*
D02*
G37*
G36*
X63000Y90765D02*
X61767Y90603D01*
X60617Y90127D01*
X59631Y89369D01*
X58873Y88383D01*
X58397Y87233D01*
X58235Y86000D01*
X58397Y84767D01*
X58873Y83617D01*
X59631Y82630D01*
X60617Y81873D01*
X61767Y81397D01*
X63000Y81235D01*
X63114Y81250D01*
X63336Y80801D01*
X62288Y79754D01*
X52974D01*
X52255Y79659D01*
X51585Y79382D01*
X51009Y78940D01*
X35793Y63724D01*
X32537D01*
X32346Y64186D01*
X36966Y68806D01*
X37407Y69382D01*
X37685Y70052D01*
X37780Y70771D01*
Y81276D01*
X39724D01*
Y90724D01*
X30276D01*
Y81276D01*
X32220D01*
Y71923D01*
X22535Y62237D01*
X22093Y61661D01*
X21815Y60991D01*
X21720Y60272D01*
Y46322D01*
X21131Y45869D01*
X20373Y44883D01*
X19897Y43733D01*
X19735Y42500D01*
X19897Y41267D01*
X20373Y40117D01*
X21131Y39130D01*
X22117Y38373D01*
X23267Y37897D01*
X24500Y37735D01*
X25237Y37832D01*
X34220Y28849D01*
Y17224D01*
X32276D01*
Y7776D01*
X41724D01*
Y17224D01*
X39780D01*
Y30000D01*
X39685Y30719D01*
X39407Y31390D01*
X38965Y31966D01*
X29168Y41763D01*
X29265Y42500D01*
X29103Y43733D01*
X28627Y44883D01*
X27869Y45869D01*
X27280Y46322D01*
Y59120D01*
X29814Y61654D01*
X30276Y61463D01*
Y54276D01*
X39724D01*
Y59793D01*
X54126Y74195D01*
X63440D01*
X64159Y74290D01*
X64829Y74567D01*
X65405Y75009D01*
X73617Y83220D01*
X77961D01*
Y81276D01*
X87410D01*
Y90724D01*
X77961D01*
Y88780D01*
X72465D01*
X71746Y88685D01*
X71075Y88407D01*
X70500Y87966D01*
X68199Y85664D01*
X67750Y85886D01*
X67765Y86000D01*
X67603Y87233D01*
X67127Y88383D01*
X66369Y89369D01*
X65383Y90127D01*
X64233Y90603D01*
X63000Y90765D01*
D02*
G37*
G36*
X201772Y61685D02*
X200500D01*
Y58000D01*
X205891D01*
X205815Y58583D01*
X205396Y59593D01*
X204731Y60460D01*
X203864Y61125D01*
X202855Y61543D01*
X201772Y61685D01*
D02*
G37*
G36*
X199500D02*
X198228D01*
X197145Y61543D01*
X196136Y61125D01*
X195269Y60460D01*
X194604Y59593D01*
X194185Y58583D01*
X194109Y58000D01*
X199500D01*
Y61685D01*
D02*
G37*
G36*
X65000Y63765D02*
X63767Y63603D01*
X62617Y63127D01*
X61630Y62370D01*
X60873Y61383D01*
X60397Y60233D01*
X60235Y59000D01*
X60397Y57767D01*
X60873Y56617D01*
X61630Y55630D01*
X62617Y54873D01*
X63767Y54397D01*
X65000Y54235D01*
X66233Y54397D01*
X67383Y54873D01*
X68370Y55630D01*
X69127Y56617D01*
X69603Y57767D01*
X69765Y59000D01*
X69603Y60233D01*
X69127Y61383D01*
X68370Y62370D01*
X67383Y63127D01*
X66233Y63603D01*
X65000Y63765D01*
D02*
G37*
G36*
X52500Y53868D02*
Y45500D01*
X60868D01*
X60746Y46740D01*
X60238Y48412D01*
X59414Y49954D01*
X58305Y51305D01*
X56954Y52414D01*
X55412Y53238D01*
X53740Y53746D01*
X52500Y53868D01*
D02*
G37*
G36*
X51500D02*
X50260Y53746D01*
X48588Y53238D01*
X47046Y52414D01*
X45695Y51305D01*
X44586Y49954D01*
X43762Y48412D01*
X43254Y46740D01*
X43132Y45500D01*
X51500D01*
Y53868D01*
D02*
G37*
G36*
X37000Y47265D02*
X35767Y47103D01*
X34617Y46627D01*
X33630Y45869D01*
X32873Y44883D01*
X32397Y43733D01*
X32235Y42500D01*
X32397Y41267D01*
X32873Y40117D01*
X33630Y39130D01*
X34617Y38373D01*
X35767Y37897D01*
X37000Y37735D01*
X38233Y37897D01*
X39383Y38373D01*
X40369Y39130D01*
X41127Y40117D01*
X41603Y41267D01*
X41765Y42500D01*
X41603Y43733D01*
X41127Y44883D01*
X40369Y45869D01*
X39383Y46627D01*
X38233Y47103D01*
X37000Y47265D01*
D02*
G37*
G36*
X60868Y44500D02*
X52500D01*
Y36132D01*
X53740Y36254D01*
X55412Y36762D01*
X56954Y37586D01*
X58305Y38695D01*
X59414Y40046D01*
X60238Y41588D01*
X60746Y43260D01*
X60868Y44500D01*
D02*
G37*
G36*
X51500D02*
X43132D01*
X43254Y43260D01*
X43762Y41588D01*
X44586Y40046D01*
X45695Y38695D01*
X47046Y37586D01*
X48588Y36762D01*
X50260Y36254D01*
X51500Y36132D01*
Y44500D01*
D02*
G37*
G36*
X228000Y37928D02*
Y35500D01*
X230428D01*
X230392Y35775D01*
X230093Y36497D01*
X229617Y37117D01*
X228997Y37593D01*
X228275Y37892D01*
X228000Y37928D01*
D02*
G37*
G36*
X227000D02*
X226725Y37892D01*
X226003Y37593D01*
X225383Y37117D01*
X224907Y36497D01*
X224608Y35775D01*
X224572Y35500D01*
X227000D01*
Y37928D01*
D02*
G37*
G36*
X230428Y34500D02*
X224417D01*
X224222Y34278D01*
X223760D01*
Y18000D01*
X229211D01*
Y30787D01*
X229092Y31691D01*
X228825Y32336D01*
X228997Y32407D01*
X229617Y32883D01*
X230093Y33503D01*
X230392Y34225D01*
X230428Y34500D01*
D02*
G37*
G36*
X54224Y34278D02*
X52264D01*
Y18000D01*
X57715D01*
Y30787D01*
X57596Y31691D01*
X57247Y32533D01*
X56693Y33255D01*
X55970Y33810D01*
X55128Y34159D01*
X54224Y34278D01*
D02*
G37*
G36*
X51264D02*
X49303D01*
X48400Y34159D01*
X47558Y33810D01*
X46835Y33255D01*
X46280Y32533D01*
X45932Y31691D01*
X45813Y30787D01*
Y18000D01*
X51264D01*
Y34278D01*
D02*
G37*
G36*
X222760D02*
X220799D01*
X219896Y34159D01*
X219054Y33810D01*
X218331Y33255D01*
X217776Y32533D01*
X217428Y31691D01*
X217309Y30787D01*
Y18000D01*
X222760D01*
Y34278D01*
D02*
G37*
G36*
X16724Y17224D02*
X7276D01*
Y7776D01*
X16724D01*
Y17224D01*
D02*
G37*
G36*
X260620Y22319D02*
X259380D01*
X259281Y22299D01*
X259181D01*
X257964Y22057D01*
X257871Y22019D01*
X257772Y21999D01*
X256626Y21524D01*
X256542Y21468D01*
X256450Y21430D01*
X255418Y20741D01*
X255347Y20670D01*
X255263Y20614D01*
X254386Y19737D01*
X254330Y19653D01*
X254259Y19582D01*
X253570Y18550D01*
X253532Y18458D01*
X253476Y18374D01*
X253001Y17228D01*
X252981Y17129D01*
X252943Y17036D01*
X252701Y15819D01*
Y15719D01*
X252681Y15620D01*
Y14380D01*
X252701Y14281D01*
Y14181D01*
X252943Y12964D01*
X252981Y12871D01*
X253001Y12772D01*
X253476Y11626D01*
X253532Y11542D01*
X253570Y11450D01*
X254259Y10418D01*
X254330Y10347D01*
X254386Y10264D01*
X255263Y9386D01*
X255347Y9330D01*
X255418Y9259D01*
X256450Y8570D01*
X256542Y8531D01*
X256626Y8476D01*
X257772Y8001D01*
X257871Y7981D01*
X257964Y7943D01*
X259181Y7701D01*
X259281D01*
X259380Y7681D01*
X260620D01*
X260719Y7701D01*
X260819D01*
X262036Y7943D01*
X262129Y7981D01*
X262228Y8001D01*
X263374Y8476D01*
X263457Y8531D01*
X263550Y8570D01*
X264582Y9259D01*
X264653Y9330D01*
X264737Y9386D01*
X265614Y10264D01*
X265670Y10347D01*
X265741Y10418D01*
X266430Y11450D01*
X266469Y11542D01*
X266524Y11626D01*
X266999Y12772D01*
X267019Y12871D01*
X267057Y12964D01*
X267299Y14181D01*
Y14281D01*
X267319Y14380D01*
Y15620D01*
X267299Y15719D01*
Y15819D01*
X267057Y17036D01*
X267019Y17129D01*
X266999Y17228D01*
X266524Y18374D01*
X266469Y18458D01*
X266430Y18550D01*
X265741Y19582D01*
X265670Y19653D01*
X265614Y19737D01*
X264737Y20614D01*
X264653Y20670D01*
X264582Y20741D01*
X263550Y21430D01*
X263457Y21468D01*
X263374Y21524D01*
X262228Y21999D01*
X262129Y22019D01*
X262036Y22057D01*
X260819Y22299D01*
X260719D01*
X260620Y22319D01*
D02*
G37*
G36*
X167124Y177000D02*
X165500D01*
Y175376D01*
X165851Y175445D01*
X166572Y175927D01*
X167054Y176649D01*
X167124Y177000D01*
D02*
G37*
G36*
X164500D02*
X162876D01*
X162945Y176649D01*
X163427Y175927D01*
X164149Y175445D01*
X164500Y175376D01*
Y177000D01*
D02*
G37*
G36*
X143000Y174624D02*
Y173000D01*
X144624D01*
X144554Y173351D01*
X144072Y174073D01*
X143351Y174555D01*
X143000Y174624D01*
D02*
G37*
G36*
X142000D02*
X141649Y174555D01*
X140928Y174073D01*
X140445Y173351D01*
X140376Y173000D01*
X142000D01*
Y174624D01*
D02*
G37*
G36*
X144624Y172000D02*
X143000D01*
Y170376D01*
X143351Y170446D01*
X144072Y170928D01*
X144554Y171649D01*
X144624Y172000D01*
D02*
G37*
G36*
X66831Y176831D02*
X58169D01*
Y168169D01*
X66831D01*
Y176831D01*
D02*
G37*
G36*
X32500Y171868D02*
X31370Y171719D01*
X30316Y171283D01*
X29411Y170589D01*
X28717Y169684D01*
X28281Y168631D01*
X28132Y167500D01*
X28281Y166369D01*
X28717Y165316D01*
X29411Y164411D01*
X30316Y163717D01*
X31370Y163281D01*
X32500Y163132D01*
X33630Y163281D01*
X34684Y163717D01*
X35589Y164411D01*
X36283Y165316D01*
X36719Y166369D01*
X36868Y167500D01*
X36719Y168631D01*
X36283Y169684D01*
X35589Y170589D01*
X34684Y171283D01*
X33630Y171719D01*
X32500Y171868D01*
D02*
G37*
G36*
X108000Y149624D02*
Y148000D01*
X109624D01*
X109555Y148351D01*
X109072Y149073D01*
X108351Y149555D01*
X108000Y149624D01*
D02*
G37*
G36*
X107000D02*
X106649Y149555D01*
X105928Y149073D01*
X105446Y148351D01*
X105376Y148000D01*
X107000D01*
Y149624D01*
D02*
G37*
G36*
X109624Y147000D02*
X108000D01*
Y145376D01*
X108351Y145446D01*
X109072Y145928D01*
X109555Y146649D01*
X109624Y147000D01*
D02*
G37*
G36*
X107000D02*
X105376D01*
X105446Y146649D01*
X105928Y145928D01*
X106649Y145446D01*
X107000Y145376D01*
Y147000D01*
D02*
G37*
G36*
X143000Y122124D02*
Y120500D01*
X144624D01*
X144554Y120851D01*
X144072Y121572D01*
X143351Y122055D01*
X143000Y122124D01*
D02*
G37*
G36*
X142000D02*
X141649Y122055D01*
X140928Y121572D01*
X140445Y120851D01*
X140376Y120500D01*
X142000D01*
Y122124D01*
D02*
G37*
G36*
X144624Y119500D02*
X143000D01*
Y117876D01*
X143351Y117946D01*
X144072Y118428D01*
X144554Y119149D01*
X144624Y119500D01*
D02*
G37*
G36*
X142000D02*
X140376D01*
X140445Y119149D01*
X140928Y118428D01*
X141649Y117946D01*
X142000Y117876D01*
Y119500D01*
D02*
G37*
G36*
X134272Y121471D02*
X130728D01*
X129701Y121336D01*
X128743Y120939D01*
X127920Y120308D01*
X127289Y119485D01*
X126893Y118528D01*
X126757Y117500D01*
X126893Y116472D01*
X127289Y115515D01*
X127920Y114692D01*
X128743Y114061D01*
X129701Y113664D01*
X130728Y113529D01*
X134272D01*
X135299Y113664D01*
X136257Y114061D01*
X137080Y114692D01*
X137711Y115515D01*
X138107Y116472D01*
X138243Y117500D01*
X138107Y118528D01*
X137711Y119485D01*
X137080Y120308D01*
X136257Y120939D01*
X135299Y121336D01*
X134272Y121471D01*
D02*
G37*
G36*
X117124Y179500D02*
X115500D01*
Y177876D01*
X115851Y177945D01*
X116572Y178428D01*
X117054Y179149D01*
X117124Y179500D01*
D02*
G37*
G36*
X114500D02*
X112876D01*
X112945Y179149D01*
X113427Y178428D01*
X114149Y177945D01*
X114500Y177876D01*
Y179500D01*
D02*
G37*
G36*
X184624Y154500D02*
X183000D01*
Y152876D01*
X183351Y152945D01*
X184072Y153428D01*
X184555Y154149D01*
X184624Y154500D01*
D02*
G37*
G36*
X172124Y142000D02*
X170500D01*
Y140376D01*
X170851Y140445D01*
X171572Y140928D01*
X172055Y141649D01*
X172124Y142000D01*
D02*
G37*
G36*
X173000Y134624D02*
Y133000D01*
X174624D01*
X174555Y133351D01*
X174073Y134072D01*
X173351Y134555D01*
X173000Y134624D01*
D02*
G37*
G36*
X172000D02*
X171649Y134555D01*
X170928Y134072D01*
X170446Y133351D01*
X170376Y133000D01*
X172000D01*
Y134624D01*
D02*
G37*
G36*
X174624Y132000D02*
X173000D01*
Y130376D01*
X173351Y130446D01*
X174073Y130928D01*
X174555Y131649D01*
X174624Y132000D01*
D02*
G37*
G36*
X172000D02*
X170376D01*
X170446Y131649D01*
X170928Y130928D01*
X171649Y130446D01*
X172000Y130376D01*
Y132000D01*
D02*
G37*
G36*
X243000Y132124D02*
Y130500D01*
X244624D01*
X244555Y130851D01*
X244073Y131572D01*
X243351Y132054D01*
X243000Y132124D01*
D02*
G37*
G36*
X242000D02*
X241649Y132054D01*
X240928Y131572D01*
X240445Y130851D01*
X240376Y130500D01*
X242000D01*
Y132124D01*
D02*
G37*
G36*
X244624Y129500D02*
X243000D01*
Y127876D01*
X243351Y127945D01*
X244073Y128428D01*
X244555Y129149D01*
X244624Y129500D01*
D02*
G37*
G36*
X242000D02*
X240376D01*
X240445Y129149D01*
X240928Y128428D01*
X241649Y127945D01*
X242000Y127876D01*
Y129500D01*
D02*
G37*
G36*
X238000Y104624D02*
Y103000D01*
X239624D01*
X239555Y103351D01*
X239072Y104072D01*
X238351Y104554D01*
X238000Y104624D01*
D02*
G37*
G36*
X237000D02*
X236649Y104554D01*
X235928Y104072D01*
X235445Y103351D01*
X235376Y103000D01*
X237000D01*
Y104624D01*
D02*
G37*
G36*
X239624Y102000D02*
X238000D01*
Y100376D01*
X238351Y100445D01*
X239072Y100927D01*
X239555Y101649D01*
X239624Y102000D01*
D02*
G37*
G36*
X237000D02*
X235376D01*
X235445Y101649D01*
X235928Y100927D01*
X236649Y100445D01*
X237000Y100376D01*
Y102000D01*
D02*
G37*
G36*
X231772Y101471D02*
X228228D01*
X227201Y101336D01*
X226243Y100939D01*
X225420Y100308D01*
X224789Y99485D01*
X224393Y98528D01*
X224257Y97500D01*
X224393Y96472D01*
X224633Y95892D01*
X219007Y90265D01*
X218702Y89809D01*
X218595Y89272D01*
Y76429D01*
X218581Y76419D01*
X218146Y75768D01*
X217993Y75000D01*
X218146Y74232D01*
X218581Y73581D01*
X219232Y73146D01*
X220000Y72993D01*
X220768Y73146D01*
X221419Y73581D01*
X221854Y74232D01*
X222007Y75000D01*
X221854Y75768D01*
X221419Y76419D01*
X221405Y76429D01*
Y88690D01*
X226620Y93905D01*
X227201Y93664D01*
X228228Y93529D01*
X231772D01*
X232799Y93664D01*
X233757Y94061D01*
X234580Y94692D01*
X235211Y95515D01*
X235607Y96472D01*
X235743Y97500D01*
X235607Y98528D01*
X235211Y99485D01*
X234580Y100308D01*
X233757Y100939D01*
X232799Y101336D01*
X231772Y101471D01*
D02*
G37*
G36*
Y91471D02*
X228228D01*
X227201Y91336D01*
X226243Y90939D01*
X225420Y90308D01*
X224789Y89486D01*
X224393Y88528D01*
X224257Y87500D01*
X224393Y86472D01*
X224789Y85514D01*
X225420Y84692D01*
X226243Y84061D01*
X227201Y83664D01*
X228228Y83529D01*
X231772D01*
X232799Y83664D01*
X233757Y84061D01*
X234580Y84692D01*
X235211Y85514D01*
X235607Y86472D01*
X235743Y87500D01*
X235607Y88528D01*
X235211Y89486D01*
X234580Y90308D01*
X233757Y90939D01*
X232799Y91336D01*
X231772Y91471D01*
D02*
G37*
G36*
Y81471D02*
X228228D01*
X227201Y81336D01*
X226243Y80939D01*
X225420Y80308D01*
X224789Y79485D01*
X224393Y78528D01*
X224257Y77500D01*
X224393Y76472D01*
X224789Y75515D01*
X225420Y74692D01*
X226243Y74061D01*
X227201Y73664D01*
X228228Y73529D01*
X231772D01*
X232799Y73664D01*
X233757Y74061D01*
X234580Y74692D01*
X235211Y75515D01*
X235607Y76472D01*
X235743Y77500D01*
X235607Y78528D01*
X235211Y79485D01*
X234580Y80308D01*
X233757Y80939D01*
X232799Y81336D01*
X231772Y81471D01*
D02*
G37*
G36*
X117124Y52000D02*
X115500D01*
Y50376D01*
X115851Y50445D01*
X116572Y50928D01*
X117054Y51649D01*
X117124Y52000D01*
D02*
G37*
G36*
X97000Y47124D02*
X96649Y47055D01*
X95928Y46573D01*
X95446Y45851D01*
X95376Y45500D01*
X97000D01*
Y47124D01*
D02*
G37*
G36*
X174500Y42124D02*
X174149Y42055D01*
X173427Y41572D01*
X172945Y40851D01*
X172876Y40500D01*
X174500D01*
Y42124D01*
D02*
G37*
G36*
X188000Y39624D02*
Y38000D01*
X189624D01*
X189555Y38351D01*
X189073Y39072D01*
X188351Y39555D01*
X188000Y39624D01*
D02*
G37*
G36*
X187000D02*
X186649Y39555D01*
X185927Y39072D01*
X185445Y38351D01*
X185376Y38000D01*
X187000D01*
Y39624D01*
D02*
G37*
G36*
X189624Y37000D02*
X188000D01*
Y35376D01*
X188351Y35445D01*
X189073Y35928D01*
X189555Y36649D01*
X189624Y37000D01*
D02*
G37*
G36*
X187000D02*
X185376D01*
X185445Y36649D01*
X185927Y35928D01*
X186649Y35445D01*
X187000Y35376D01*
Y37000D01*
D02*
G37*
G36*
X165500Y49624D02*
Y48000D01*
X167124D01*
X167054Y48351D01*
X166572Y49073D01*
X165851Y49555D01*
X165500Y49624D01*
D02*
G37*
G36*
X164500D02*
X164149Y49555D01*
X163427Y49073D01*
X162945Y48351D01*
X162876Y48000D01*
X164500D01*
Y49624D01*
D02*
G37*
G36*
X167124Y47000D02*
X165500D01*
Y45376D01*
X165851Y45445D01*
X166572Y45928D01*
X167054Y46649D01*
X167124Y47000D01*
D02*
G37*
G36*
X164500D02*
X162876D01*
X162945Y46649D01*
X163427Y45928D01*
X164149Y45445D01*
X164500Y45376D01*
Y47000D01*
D02*
G37*
G36*
X145500Y47124D02*
Y45500D01*
X147124D01*
X147055Y45851D01*
X146572Y46573D01*
X145851Y47055D01*
X145500Y47124D01*
D02*
G37*
G36*
X144500D02*
X144149Y47055D01*
X143428Y46573D01*
X142946Y45851D01*
X142876Y45500D01*
X144500D01*
Y47124D01*
D02*
G37*
G36*
X147124Y44500D02*
X145500D01*
Y42876D01*
X145851Y42945D01*
X146572Y43428D01*
X147055Y44149D01*
X147124Y44500D01*
D02*
G37*
G36*
X144500D02*
X142876D01*
X142946Y44149D01*
X143428Y43428D01*
X144149Y42945D01*
X144500Y42876D01*
Y44500D01*
D02*
G37*
G36*
X133000Y54624D02*
Y53000D01*
X134624D01*
X134555Y53351D01*
X134072Y54072D01*
X133351Y54554D01*
X133000Y54624D01*
D02*
G37*
G36*
X132000D02*
X131649Y54554D01*
X130928Y54072D01*
X130446Y53351D01*
X130376Y53000D01*
X132000D01*
Y54624D01*
D02*
G37*
G36*
X134624Y52000D02*
X133000D01*
Y50376D01*
X133351Y50445D01*
X134072Y50928D01*
X134555Y51649D01*
X134624Y52000D01*
D02*
G37*
G36*
X132000D02*
X130376D01*
X130446Y51649D01*
X130928Y50928D01*
X131649Y50445D01*
X132000Y50376D01*
Y52000D01*
D02*
G37*
G36*
X75500Y44624D02*
Y43000D01*
X77124D01*
X77055Y43351D01*
X76573Y44072D01*
X75851Y44555D01*
X75500Y44624D01*
D02*
G37*
G36*
X74500D02*
X74149Y44555D01*
X73427Y44072D01*
X72945Y43351D01*
X72876Y43000D01*
X74500D01*
Y44624D01*
D02*
G37*
G36*
X77124Y42000D02*
X75500D01*
Y40376D01*
X75851Y40445D01*
X76573Y40927D01*
X77055Y41649D01*
X77124Y42000D01*
D02*
G37*
G36*
X74500D02*
X72876D01*
X72945Y41649D01*
X73427Y40927D01*
X74149Y40445D01*
X74500Y40376D01*
Y42000D01*
D02*
G37*
%LPD*%
D34*
X67354Y17500D02*
D03*
X98535D02*
D03*
X51764D02*
D03*
X82945D02*
D03*
X114126D02*
D03*
X129717D02*
D03*
X223260D02*
D03*
X207669D02*
D03*
X176488D02*
D03*
X145307D02*
D03*
X192079D02*
D03*
X160898D02*
D03*
D35*
X230010Y177549D02*
X230010D01*
X227481Y175019D02*
X227481D01*
X240000Y162500D01*
X230010Y177549D02*
X247500Y160059D01*
X97500Y135000D02*
X125000D01*
X132500Y127500D01*
X247500Y47500D02*
X252500Y52500D01*
X240424Y47500D02*
X247500D01*
X245000Y50000D02*
X247500Y52500D01*
X240707Y45000D02*
X250000D01*
X257500Y52500D01*
X192079Y34579D02*
X202500Y45000D01*
X219292D01*
X238050Y42342D02*
X240707Y45000D01*
X221950Y42342D02*
X238050D01*
X219292Y45000D02*
X221950Y42342D01*
X237235Y44311D02*
X240424Y47500D01*
X236419Y46279D02*
X240140Y50000D01*
X223581Y46279D02*
X236419D01*
X220428Y52216D02*
X224396Y48248D01*
X222765Y44311D02*
X237235D01*
X235604Y48248D02*
X239831Y52475D01*
X219860Y50000D02*
X223581Y46279D01*
X219576Y47500D02*
X222765Y44311D01*
X224396Y48248D02*
X235604D01*
X176488Y36488D02*
X187500Y47500D01*
X219576D01*
X160898Y35020D02*
X175878Y50000D01*
X239831Y52475D02*
X242700D01*
X240140Y50000D02*
X245000D01*
X175878D02*
X219860D01*
X242700Y52475D02*
X242784Y52559D01*
X159716Y52216D02*
X220428D01*
X145307Y37807D02*
X159716Y52216D01*
X145059Y57559D02*
X178287D01*
X129717Y42217D02*
X145059Y57559D01*
X178287D02*
X198228Y77500D01*
X160000Y55000D02*
X185000D01*
X197500Y67500D01*
X129717Y17500D02*
Y42217D01*
X114126Y44126D02*
X130000Y60000D01*
X170728D02*
X198228Y87500D01*
X130000Y60000D02*
X170728D01*
X120000Y62500D02*
X162500D01*
X159468Y64468D02*
X175000Y80000D01*
X106968Y64468D02*
X159468D01*
X162500Y62500D02*
X192500Y92500D01*
X82945Y40445D02*
X106968Y64468D01*
X98535Y41035D02*
X120000Y62500D01*
X247500Y125000D02*
Y160059D01*
X33192Y150000D02*
X70354D01*
X25000Y158192D02*
Y175000D01*
Y158192D02*
X33192Y150000D01*
X25000Y175000D02*
X30000Y180000D01*
X228228Y97500D02*
X230000D01*
X220000Y89272D02*
X228228Y97500D01*
X220000Y75000D02*
Y89272D01*
X160000Y162500D02*
X167500Y155000D01*
X100000Y162500D02*
X160000D01*
X105481Y172441D02*
X135481D01*
X99035Y175000D02*
X130000D01*
X135481Y172441D02*
X143099Y180059D01*
X89035Y185000D02*
X99035Y175000D01*
X100619Y167579D02*
X105481Y172441D01*
X84990Y170975D02*
Y174045D01*
X88386Y167579D02*
X100619D01*
X76476Y182559D02*
X84990Y174045D01*
Y170975D02*
X88386Y167579D01*
X228228Y107500D02*
X230000D01*
X223228Y102500D02*
X228228Y107500D01*
X117854Y102500D02*
X223228D01*
X70354Y150000D02*
X117854Y102500D01*
X30000Y180000D02*
X47500D01*
X10000Y182500D02*
X29250D01*
X29309Y182559D01*
X76476D01*
X5000Y187500D02*
X10000Y182500D01*
X25000Y185059D02*
X25059Y185000D01*
X89035D01*
X27500Y187500D02*
X159941D01*
X17500Y197500D02*
X27500Y187500D01*
X187989Y154511D02*
X202421Y168943D01*
Y174538D01*
X143099Y180059D02*
X196901D01*
X157500Y172500D02*
X175000D01*
X152500Y167500D02*
X157500Y172500D01*
X92500Y244325D02*
Y250675D01*
X89375Y253799D02*
X92500Y250675D01*
X141808Y240000D02*
X147500Y245692D01*
X60461Y234921D02*
X92439D01*
X65625Y253799D02*
X89375D01*
X96825Y240000D02*
X141808D01*
X92439Y234921D02*
X94053Y233307D01*
X92500Y244325D02*
X96825Y240000D01*
X52500Y226960D02*
X60461Y234921D01*
X47500Y257500D02*
X92500D01*
X52500Y222559D02*
Y226960D01*
X47500Y220000D02*
X62500D01*
X42500Y225000D02*
X47500Y220000D01*
X36654Y225000D02*
X42500D01*
X30000Y207500D02*
Y218346D01*
X36654Y225000D01*
X30000Y207500D02*
X45000Y192500D01*
X62500D01*
X162500Y137500D02*
X200000D01*
X162500Y117500D02*
X164272D01*
X174272Y107500D01*
X200000D01*
X162500Y97500D02*
X200000D01*
X197500Y67500D02*
X200000D01*
X112216Y72500D02*
X140000D01*
X5000Y187500D02*
Y250000D01*
X196901Y180059D02*
X202421Y174538D01*
X192500Y174460D02*
Y177500D01*
X25000Y281808D02*
X28192Y285000D01*
X25000Y265000D02*
X32500Y257500D01*
X25000Y265000D02*
Y281808D01*
X28192Y285000D02*
X138175D01*
X147500Y245000D02*
X147820D01*
X147500Y245692D02*
Y247500D01*
Y245000D02*
Y245692D01*
X230000Y67500D02*
X231772D01*
X242500Y78228D01*
Y104308D01*
X234308Y112500D02*
X242500Y104308D01*
X178750Y112500D02*
X234308D01*
X147500Y122500D02*
X168750D01*
X178750Y112500D01*
X137500Y132500D02*
X147500Y122500D01*
X147820Y245000D02*
X162500Y230320D01*
Y230000D02*
Y230320D01*
X139193Y233307D02*
X162500Y210000D01*
X94053Y233307D02*
X139193D01*
X62972Y251147D02*
X65625Y253799D01*
X62972Y248192D02*
Y251147D01*
X62281Y247500D02*
X62972Y248192D01*
X57500Y247500D02*
X62281D01*
X119941Y252500D02*
X120000Y252559D01*
X120059D01*
X121299Y253799D01*
X132972D01*
X137500Y247500D02*
Y249272D01*
X132972Y253799D02*
X137500Y249272D01*
X204941Y187500D02*
X205000Y187441D01*
X178465Y187500D02*
X204941D01*
X181262Y163222D02*
X192500Y174460D01*
X175965Y190000D02*
X178465Y187500D01*
X197500Y277500D02*
X237500D01*
X47500Y247500D02*
Y249272D01*
X39272Y257500D02*
X47500Y249272D01*
X32500Y257500D02*
X39272D01*
X42500Y270000D02*
X102500D01*
X142500Y272500D02*
Y280675D01*
X138175Y285000D02*
X142500Y280675D01*
Y272500D02*
X143799Y271201D01*
X189375D01*
X197500Y275728D02*
Y277500D01*
X194941Y273169D02*
X197500Y275728D01*
X189375Y271201D02*
X191344Y273169D01*
X194941D01*
X138523Y293302D02*
X173470D01*
X187500Y279272D01*
X125472Y306353D02*
X138523Y293302D01*
X187500Y277500D02*
Y279272D01*
X124781Y310000D02*
X125472Y309308D01*
X120000Y310000D02*
X124781D01*
X125472Y306353D02*
Y309308D01*
X167500Y277500D02*
Y279272D01*
X159272Y287500D02*
X167500Y279272D01*
X130728Y287500D02*
X159272D01*
X110000Y308228D02*
Y310000D01*
Y308228D02*
X130728Y287500D01*
X240000Y139325D02*
Y162500D01*
X196297Y208347D02*
X200451Y212500D01*
X189212Y205866D02*
X191693Y208347D01*
X180149Y205866D02*
X189212D01*
X191693Y208347D02*
X196297D01*
X160000Y202500D02*
X176783D01*
X180149Y205866D01*
X146634Y215866D02*
X156634Y205866D01*
X171491D01*
X175625Y210000D01*
X152500Y190059D02*
X152559Y190000D01*
X175965D01*
X204528Y303701D02*
X251201D01*
X196496Y301732D02*
X254232D01*
X256375Y299764D02*
X258462Y301850D01*
X258465D01*
X190000Y308228D02*
X196496Y301732D01*
X200000Y308228D02*
X204528Y303701D01*
X180000Y308228D02*
X188465Y299764D01*
X256375D01*
X254232Y301732D02*
X257500Y305000D01*
X251201Y303701D02*
X255000Y307500D01*
X187989Y147011D02*
Y154511D01*
X228228Y137500D02*
X230000D01*
X223228Y142500D02*
X228228Y137500D01*
X192500Y142500D02*
X223228D01*
X187989Y147011D02*
X192500Y142500D01*
X181262Y158088D02*
Y163222D01*
X166147Y142972D02*
X181262Y158088D01*
X159798Y142972D02*
X166147D01*
X156201Y139375D02*
X159798Y142972D01*
X156201Y132028D02*
Y139375D01*
Y132028D02*
X160728Y127500D01*
X160898Y17500D02*
Y35020D01*
X40000Y375000D02*
X55000Y360000D01*
X81772D01*
X90000Y368228D02*
Y370000D01*
X81772Y360000D02*
X90000Y368228D01*
X67354Y17500D02*
Y42354D01*
X82500Y57500D01*
X97216D01*
X112216Y72500D01*
X159941Y187500D02*
X160000Y187441D01*
X192079Y17500D02*
Y34579D01*
X180000Y308228D02*
Y310000D01*
X176488Y17500D02*
Y36488D01*
X190000Y308228D02*
Y310000D01*
X200000Y308228D02*
Y310000D01*
X82945Y17500D02*
Y40445D01*
X175000Y127500D02*
X200000D01*
X216155D01*
X221155Y132500D01*
X233175D01*
X240000Y139325D01*
X98535Y17500D02*
Y41035D01*
X192500Y92500D02*
X203175D01*
X215236Y80438D01*
Y74089D02*
Y80438D01*
Y74089D02*
X226825Y62500D01*
X242500D01*
X247500Y67500D01*
Y125000D01*
X200000Y117500D02*
X201772D01*
X206772Y122500D01*
X245000D01*
X247500Y125000D01*
X198228Y87500D02*
X200000D01*
X114126Y17500D02*
Y44126D01*
X198228Y77500D02*
X200000D01*
X145307Y17500D02*
Y37807D01*
X115000Y227441D02*
X115059D01*
X122500Y220000D01*
X137500D01*
X62500Y230000D02*
X133346D01*
X146634Y216712D01*
X210902Y212500D02*
X212500D01*
X200451D02*
X210902D01*
X175625Y210000D02*
X187500D01*
X192500Y215000D02*
X208402D01*
X210902Y212500D01*
X146634Y215866D02*
Y216712D01*
X160728Y127500D02*
X162500D01*
D36*
X264449Y197500D02*
X265000D01*
X262224Y195276D02*
X264449Y197500D01*
X219184Y195276D02*
X262224D01*
X232500Y257500D02*
X265000D01*
X230000Y260000D02*
X232500Y257500D01*
X225782Y51595D02*
X234218D01*
X241777Y59153D01*
X219877Y57500D02*
X225782Y51595D01*
X244153Y59153D02*
X270000Y85000D01*
X241777Y59153D02*
X244153D01*
X255000Y200000D02*
X270000Y215000D01*
X88691Y208383D02*
X92500Y204574D01*
X176949Y197933D02*
X181536Y202520D01*
X194965Y203799D02*
X215109D01*
X218908Y200000D02*
X255000D01*
X181536Y202520D02*
X193686D01*
X207314Y183405D02*
X219184Y195276D01*
X193686Y202520D02*
X194965Y203799D01*
X215109D02*
X218908Y200000D01*
X167933Y197933D02*
X176949D01*
X152500Y197500D02*
X167500D01*
X167933Y197933D01*
X46771Y135000D02*
X67658D01*
X35118Y146653D02*
X46771Y135000D01*
X28346Y146653D02*
X35118D01*
X10000Y165000D02*
X28346Y146653D01*
X10000Y165000D02*
Y171024D01*
X17500Y178524D01*
X57500Y157500D02*
X134468D01*
X47500Y167500D02*
X57500Y157500D01*
X134468D02*
X144468Y147500D01*
X107500Y184153D02*
X129252D01*
X130000Y183405D01*
X207314D01*
X93825Y238268D02*
X95439Y236653D01*
X59075Y238268D02*
X93825D01*
X12500Y335000D02*
Y345000D01*
X6201Y328701D02*
X12500Y335000D01*
X6201Y292992D02*
X7500Y291693D01*
Y257500D02*
Y291693D01*
X6201Y292992D02*
Y328701D01*
X92500Y192500D02*
Y204574D01*
X15000Y235000D02*
Y299148D01*
X12500Y301648D02*
Y302500D01*
Y301648D02*
X15000Y299148D01*
X145846Y236653D02*
X162500Y220000D01*
X30245Y236653D02*
X57461D01*
X28592Y235000D02*
X30245Y236653D01*
X57461D02*
X59075Y238268D01*
X95439Y236653D02*
X145846D01*
X200000Y57500D02*
X219877D01*
X218592Y182500D02*
X265000D01*
X270000Y187500D01*
X206201Y170109D02*
X218592Y182500D01*
X200000Y147500D02*
X201772D01*
X202953Y148681D01*
Y150453D01*
X206201Y153701D01*
Y170109D01*
X145512Y204488D02*
X152500Y197500D01*
X118438Y204488D02*
X145512D01*
X112926Y210000D02*
X118438Y204488D01*
X112500Y210000D02*
X112926D01*
X87500D02*
X87801Y209699D01*
X90006D01*
X90217Y209488D01*
X111562D01*
X112074Y210000D01*
X112500D01*
X62500D02*
X62801Y209699D01*
X65006D01*
X65217Y209488D01*
X86562D01*
X87074Y210000D01*
X87500D01*
X37500D02*
X37801Y209699D01*
X40007D01*
X40217Y209488D01*
X61562D01*
X62074Y210000D01*
X62500D01*
X208228Y260000D02*
X230000D01*
X107500Y247500D02*
Y248632D01*
X109724Y249724D02*
X120000Y260000D01*
X107500Y248632D02*
X108591Y249724D01*
X120000Y260000D02*
X208228D01*
X108591Y249724D02*
X109724D01*
X25000Y310000D02*
X80000D01*
X12500Y322500D02*
X25000Y310000D01*
X197500Y249272D02*
X208228Y260000D01*
X197500Y247500D02*
Y249272D01*
X144468Y147500D02*
X162500D01*
X66772Y385000D02*
X235000D01*
X30000D02*
X66772D01*
X80000Y370000D02*
Y371772D01*
X66772Y385000D02*
X80000Y371772D01*
X15000Y235000D02*
X28592D01*
X187500Y220000D02*
X209397Y241897D01*
X163438Y220512D02*
X185875D01*
X186085Y220301D02*
X187199D01*
X185875Y220512D02*
X186085Y220301D01*
X162500Y220000D02*
X162926D01*
X163438Y220512D01*
X187199Y220301D02*
X187500Y220000D01*
X209397Y241897D02*
X211897D01*
X212500Y242500D01*
X72465Y86000D02*
X82685D01*
X63440Y76974D02*
X72465Y86000D01*
X52974Y76974D02*
X63440D01*
X35000Y59000D02*
X52974Y76974D01*
X67658Y121611D02*
Y135000D01*
Y121611D02*
X104750Y84518D01*
Y72250D02*
Y84518D01*
X120000Y87500D02*
X132500D01*
X104750Y72250D02*
X120000Y87500D01*
X52000Y62000D02*
X62250Y72250D01*
X104750D01*
X52000Y45000D02*
Y62000D01*
X51764Y17500D02*
X51882Y17618D01*
Y44882D01*
X52000Y45000D01*
X24500Y12500D02*
Y30000D01*
X12000Y42500D02*
X24500Y30000D01*
X12000Y42500D02*
Y66790D01*
X8000Y70790D02*
X12000Y66790D01*
X8000Y70790D02*
Y94016D01*
X35000Y121016D02*
Y135000D01*
X8000Y94016D02*
X35000Y121016D01*
X37000Y12500D02*
Y30000D01*
X24500Y42500D02*
X37000Y30000D01*
X35000Y70771D02*
Y86000D01*
X24500Y60272D02*
X35000Y70771D01*
X24500Y42500D02*
Y60272D01*
D38*
X270000Y200573D02*
Y215000D01*
Y200573D02*
X270709Y199865D01*
Y195135D02*
Y199865D01*
X270000Y194427D02*
X270709Y195135D01*
X270000Y187500D02*
Y194427D01*
X258122Y319378D02*
X270709Y306791D01*
Y255135D02*
Y306791D01*
X270000Y254427D02*
X270709Y255135D01*
X270000Y215000D02*
Y254427D01*
X225228Y32728D02*
X227500Y35000D01*
X225228Y19468D02*
Y32728D01*
X223260Y17500D02*
X225228Y19468D01*
X227500Y35000D02*
X252500D01*
X270000Y52500D01*
Y85000D01*
X127500Y275835D02*
X127629Y275706D01*
Y275600D02*
Y275706D01*
Y275600D02*
X136358Y266870D01*
X192173Y267874D02*
X230000D01*
X191169Y266870D02*
X192173Y267874D01*
X136358Y266870D02*
X191169D01*
X270000Y85000D02*
Y187500D01*
X217500Y319378D02*
X258122D01*
X210000Y310000D02*
Y311878D01*
X217500Y319378D01*
X127500Y275728D02*
Y275835D01*
Y277500D01*
X116772Y265000D02*
X127500Y275728D01*
X40540Y265000D02*
X116772D01*
X37575Y267965D02*
X40540Y265000D01*
X37575Y267965D02*
Y277425D01*
X37500Y277500D02*
X37575Y277425D01*
D39*
X230000Y260000D02*
D03*
D40*
Y267874D02*
D03*
D41*
X77500Y135000D02*
D03*
D42*
X67658D02*
D03*
D43*
X15315Y86000D02*
D03*
X63000D02*
D03*
X37000Y42500D02*
D03*
X24500D02*
D03*
X15315Y135000D02*
D03*
X12000Y42500D02*
D03*
X65000Y59000D02*
D03*
D44*
X35000Y86000D02*
D03*
X82685D02*
D03*
X35000Y135000D02*
D03*
Y59000D02*
D03*
D45*
X62500Y172500D02*
D03*
X77500D02*
D03*
X92500D02*
D03*
X197500Y192500D02*
D03*
X12500Y345000D02*
D03*
X182500Y192500D02*
D03*
X12500Y322500D02*
D03*
D46*
X62500Y192500D02*
D03*
X77500D02*
D03*
X92500D02*
D03*
X197500Y172500D02*
D03*
X12500Y355000D02*
D03*
X30000D02*
D03*
Y385000D02*
D03*
X167500Y167500D02*
D03*
Y197500D02*
D03*
X212500D02*
D03*
Y167500D02*
D03*
X62500Y230000D02*
D03*
X32500D02*
D03*
X138000Y168000D02*
D03*
Y198000D02*
D03*
X17500Y197500D02*
D03*
Y167500D02*
D03*
X32500Y197500D02*
D03*
Y167500D02*
D03*
X47500Y197500D02*
D03*
Y167500D02*
D03*
X107500Y197500D02*
D03*
Y167500D02*
D03*
X122500Y197500D02*
D03*
Y167500D02*
D03*
X152500Y197500D02*
D03*
Y167500D02*
D03*
X182500Y172500D02*
D03*
X12500Y302500D02*
D03*
X212500Y212500D02*
D03*
Y242500D02*
D03*
D47*
X137500Y220000D02*
D03*
X142500Y215000D02*
D03*
X137500Y210000D02*
D03*
X187500D02*
D03*
X192500Y215000D02*
D03*
X187500Y220000D02*
D03*
X162500D02*
D03*
X167500Y215000D02*
D03*
X162500Y210000D02*
D03*
X37500Y220000D02*
D03*
X42500Y215000D02*
D03*
X37500Y210000D02*
D03*
X112500Y220000D02*
D03*
X117500Y215000D02*
D03*
X112500Y210000D02*
D03*
X62500Y220000D02*
D03*
X67500Y215000D02*
D03*
X62500Y210000D02*
D03*
X87500Y220000D02*
D03*
X92500Y215000D02*
D03*
X87500Y210000D02*
D03*
D48*
X80000Y370000D02*
D03*
X90000D02*
D03*
X100000D02*
D03*
X110000D02*
D03*
X120000D02*
D03*
X130000D02*
D03*
X140000D02*
D03*
X150000D02*
D03*
X160000D02*
D03*
X170000D02*
D03*
X180000D02*
D03*
X190000D02*
D03*
X200000D02*
D03*
X210000D02*
D03*
Y310000D02*
D03*
X200000D02*
D03*
X190000D02*
D03*
X180000D02*
D03*
X170000D02*
D03*
X160000D02*
D03*
X150000D02*
D03*
X140000D02*
D03*
X130000D02*
D03*
X120000D02*
D03*
X110000D02*
D03*
X100000D02*
D03*
X90000D02*
D03*
X80000D02*
D03*
X127500Y277500D02*
D03*
Y247500D02*
D03*
X137500D02*
D03*
X147500D02*
D03*
X157500D02*
D03*
X167500D02*
D03*
X177500D02*
D03*
X137500Y277500D02*
D03*
X147500D02*
D03*
X157500D02*
D03*
X167500D02*
D03*
X177500D02*
D03*
X187500D02*
D03*
Y247500D02*
D03*
X197500D02*
D03*
X107500D02*
D03*
X97500D02*
D03*
Y277500D02*
D03*
X87500D02*
D03*
X77500D02*
D03*
X67500D02*
D03*
X57500D02*
D03*
X47500D02*
D03*
X87500Y247500D02*
D03*
X77500D02*
D03*
X67500D02*
D03*
X57500D02*
D03*
X47500D02*
D03*
X37500D02*
D03*
Y277500D02*
D03*
D49*
X197500D02*
D03*
X107500D02*
D03*
D50*
X162500Y87500D02*
D03*
Y97500D02*
D03*
Y107500D02*
D03*
Y117500D02*
D03*
Y127500D02*
D03*
Y137500D02*
D03*
Y147500D02*
D03*
X132500Y87500D02*
D03*
Y97500D02*
D03*
Y107500D02*
D03*
Y117500D02*
D03*
Y127500D02*
D03*
Y137500D02*
D03*
X230000Y147500D02*
D03*
Y127500D02*
D03*
Y117500D02*
D03*
Y107500D02*
D03*
Y97500D02*
D03*
Y137500D02*
D03*
X200000Y77500D02*
D03*
Y67500D02*
D03*
Y57500D02*
D03*
X230000D02*
D03*
Y67500D02*
D03*
Y77500D02*
D03*
Y87500D02*
D03*
X200000D02*
D03*
Y97500D02*
D03*
Y107500D02*
D03*
Y117500D02*
D03*
Y127500D02*
D03*
Y137500D02*
D03*
D51*
X132500Y147500D02*
D03*
X200000D02*
D03*
D52*
X15000Y235000D02*
D03*
Y225000D02*
D03*
Y215000D02*
D03*
D53*
X37000Y12500D02*
D03*
X24500D02*
D03*
X12000D02*
D03*
D54*
X265000Y197500D02*
D03*
Y257500D02*
D03*
X227500Y35000D02*
D03*
X17500Y178524D02*
D03*
X107500Y184153D02*
D03*
X130000Y183405D02*
D03*
X7500Y257500D02*
D03*
X235000Y385000D02*
D03*
D55*
X230010Y177549D02*
D03*
X227481Y175019D02*
D03*
X152500Y255000D02*
D03*
X142500Y172500D02*
D03*
Y120000D02*
D03*
X182500Y155000D02*
D03*
X115000Y180000D02*
D03*
X165000Y177500D02*
D03*
X187500Y37500D02*
D03*
X175000Y40000D02*
D03*
X165000Y47500D02*
D03*
X145000Y45000D02*
D03*
X132500Y52500D02*
D03*
X115000D02*
D03*
X97500Y45000D02*
D03*
X75000Y42500D02*
D03*
X237500Y102500D02*
D03*
X242500Y130000D02*
D03*
X170000Y142500D02*
D03*
X172500Y132500D02*
D03*
X107500Y147500D02*
D03*
X122500Y77500D02*
D03*
X257500Y167500D02*
D03*
X160000Y77500D02*
D03*
X97500Y135000D02*
D03*
X247500Y52500D02*
D03*
X252500D02*
D03*
X257500D02*
D03*
X242784Y52559D02*
D03*
X160000Y55000D02*
D03*
X220000Y75000D02*
D03*
X167500Y155000D02*
D03*
X100000Y162500D02*
D03*
X47500Y180000D02*
D03*
X25000Y185059D02*
D03*
X92500Y257500D02*
D03*
X52500Y222559D02*
D03*
X140000Y72500D02*
D03*
X130000Y175000D02*
D03*
X192500Y177500D02*
D03*
X47500Y257500D02*
D03*
X137500Y132500D02*
D03*
X162500Y230000D02*
D03*
X119941Y252500D02*
D03*
X205000Y187441D02*
D03*
X237500Y277500D02*
D03*
X42500Y270000D02*
D03*
X160000Y202500D02*
D03*
X102500Y270000D02*
D03*
X175000Y172500D02*
D03*
X5000Y250000D02*
D03*
X40000Y375000D02*
D03*
X152500Y190059D02*
D03*
X160000Y187441D02*
D03*
X258465Y301850D02*
D03*
X257500Y305000D02*
D03*
X255000Y307500D02*
D03*
X175000Y80000D02*
D03*
Y127500D02*
D03*
X115000Y227441D02*
D03*
D56*
X52000Y45000D02*
D03*
M02*
