M48
;Layer_Color=9474304
;FILE_FORMAT=2:5
INCH,TZ
;TYPE=PLATED
T1F00S00C0.01181
T2F00S00C0.01968
T3F00S00C0.03150
T4F00S00C0.03543
T5F00S00C0.03937
T6F00S00C0.04331
T7F00S00C0.12598
%
T01
X175000Y40000
X187500Y37500
X175000Y80000
X220000Y75000
X242784Y52559
X247500Y52500
X252500
X257500
X165000Y47500
X160000Y55000
Y77500
X140000Y72500
X122500Y77500
X115000Y52500
X132500
X145000Y45000
X97500
X75000Y42500
X5000Y250000
X52500Y222559
X47500Y180000
X25000Y185059
X115000Y180000
X130000Y175000
X142500Y172500
X165000Y177500
X160000Y187441
X152500Y190059
X160000Y202500
X162500Y230000
X115000Y227441
X100000Y162500
X107500Y147500
X97500Y135000
X137500Y132500
X142500Y120000
X170000Y142500
X167500Y155000
X182500
X175000Y172500
X192500Y177500
X205000Y187441
X230010Y177549
X227481Y175019
X257500Y167500
X242500Y130000
X237500Y102500
X175000Y127500
X172500Y132500
X237500Y277500
X258465Y301850
X257500Y305000
X255000Y307500
X152500Y255000
X119941Y252500
X92500Y257500
X102500Y270000
X42500
X47500Y257500
X40000Y375000
T02
X227500Y35000
X130000Y183405
X107500Y184153
X17500Y178524
X265000Y197500
Y257500
X235000Y385000
X7500Y257500
T03
X200000Y57500
Y67500
Y77500
Y87500
X230000
Y77500
Y67500
Y57500
X162500Y87500
X132500
Y97500
Y107500
Y117500
Y127500
Y137500
Y147500
X138000Y168000
X152500Y167500
X167500
X162500Y147500
Y137500
Y127500
Y117500
Y107500
Y97500
X167500Y197500
X152500
X138000Y198000
X137500Y210000
Y220000
X142500Y215000
X162500Y220000
X167500Y215000
X162500Y210000
X157500Y247500
X147500
X137500
X127500
X107500
X97500
X87500
X77500
X67500
X57500
X47500
X37500
X32500Y230000
X37500Y220000
X42500Y215000
X37500Y210000
X32500Y197500
X17500
Y167500
X32500
X47500
X62500Y172500
X77500
X92500
Y192500
X77500
X62500
Y210000
Y220000
Y230000
X67500Y215000
X87500Y220000
X92500Y215000
X87500Y210000
X112500
Y220000
X117500Y215000
X122500Y197500
X107500
Y167500
X122500
X77500Y135000
X67658
X47500Y197500
X167500Y247500
X177500
X187500
X197500
X212500Y242500
Y212500
Y197500
X197500Y192500
X182500
Y172500
X197500
X212500Y167500
X200000Y147500
Y137500
Y127500
Y117500
Y107500
Y97500
X230000
Y107500
Y117500
Y127500
Y137500
Y147500
X187500Y210000
X192500Y215000
X187500Y220000
Y277500
X177500
X197500
X230000Y267874
Y260000
X167500Y277500
X157500
X147500
X137500
X127500
X107500
X97500
X87500
X77500
X67500
X57500
X47500
X37500
X30000Y355000
Y385000
X12500Y322500
Y302500
T04
X12500Y345000
Y355000
T05
X24500Y12500
X37000
Y42500
X24500
X35000Y59000
Y86000
X63000
X82685
X65000Y59000
X12000Y42500
Y12500
X15315Y86000
Y135000
X35000
X180000Y310000
X190000
X200000
X210000
Y370000
X200000
X190000
X180000
X170000
X160000
X150000
X140000
X130000
X120000
X110000
X100000
X90000
X80000
Y310000
X90000
X100000
X110000
X120000
X130000
X140000
X150000
X160000
X170000
T06
X15000Y215000
Y225000
Y235000
T07
X52000Y45000
M30
